<svg xmlns="http://www.w3.org/2000/svg" width="796" height="796" preserveAspectRatio="none" style="display:block" viewBox="0 0 2048 2048" id="e255703b-413f-37f0-8574-86fab2ecea66">
  <defs>
    <linearGradient id="Gradient1" x1="967.742" x2="976.668" y1="1415.89" y2="1373.77" gradientUnits="userSpaceOnUse">
      <stop class="stop0" offset="0" stop-color="#D68C65"></stop>
      <stop class="stop1" offset="1" stop-color="#FFB284"></stop>
    </linearGradient>
    <linearGradient id="Gradient2" x1="956.662" x2="986.177" y1="1470.81" y2="1320.31" gradientUnits="userSpaceOnUse">
      <stop class="stop0" offset="0" stop-color="#EFB078"></stop>
      <stop class="stop1" offset="1" stop-color="#FFD09E"></stop>
    </linearGradient>
    <linearGradient id="Gradient3" x1="955.634" x2="815.304" y1="1722.59" y2="1516.54" gradientUnits="userSpaceOnUse">
      <stop class="stop0" offset="0" stop-color="#F6B682"></stop>
      <stop class="stop1" offset="1" stop-color="#FFDBA5"></stop>
    </linearGradient>
    <linearGradient id="Gradient4" x1="1006.32" x2="1099.71" y1="1618.36" y2="1731.88" gradientUnits="userSpaceOnUse">
      <stop class="stop0" offset="0" stop-color="#F9A975"></stop>
      <stop class="stop1" offset="1" stop-color="#FFD398"></stop>
    </linearGradient>
    <linearGradient id="Gradient5" x1="987.916" x2="1057.45" y1="1373.37" y2="1029.49" gradientUnits="userSpaceOnUse">
      <stop class="stop0" offset="0" stop-color="#F6B480"></stop>
      <stop class="stop1" offset="1" stop-color="#FFD5A5"></stop>
    </linearGradient>
    <linearGradient id="Gradient6" x1="905.708" x2="930.322" y1="903.528" y2="831.477" gradientUnits="userSpaceOnUse">
      <stop class="stop0" offset="0" stop-color="#252526"></stop>
      <stop class="stop1" offset="1" stop-color="#464646"></stop>
    </linearGradient>
    <linearGradient id="Gradient7" x1="1251.2" x2="1259.7" y1="1019.74" y2="972.272" gradientUnits="userSpaceOnUse">
      <stop class="stop0" offset="0" stop-color="#242324"></stop>
      <stop class="stop1" offset="1" stop-color="#4A4A4A"></stop>
    </linearGradient>
    <linearGradient id="Gradient8" x1="1071.02" x2="1126.59" y1="1004.9" y2="693.421" gradientUnits="userSpaceOnUse">
      <stop class="stop0" offset="0" stop-color="#FBC493"></stop>
      <stop class="stop1" offset="1" stop-color="#FFE3AF"></stop>
    </linearGradient>
    <linearGradient id="Gradient9" x1="1082.61" x2="1179.91" y1="1012.59" y2="423.811" gradientUnits="userSpaceOnUse">
      <stop class="stop0" offset="0" stop-color="#2D2D2D"></stop>
      <stop class="stop1" offset="1" stop-color="#5A5A5A"></stop>
    </linearGradient>
  </defs>
  <path d="M 0 0 L 2048 0 L 2048 2048 L 0 2048 L 0 0 z"></path>
  <path fill="#383838" d="M 890.865 454.633 C 930.337 436.565 973.336 428.416 1016.33 422.639 C 1028.14 421.052 1041.97 422.809 1053.98 421.729 C 1087.72 418.864 1125.82 418.83 1159.61 420.084 C 1176.08 420.695 1211.71 428.193 1228.85 431.137 C 1243.18 433.597 1277.89 447.228 1293.04 452.863 C 1323.42 464.285 1352.97 477.801 1381.48 493.314 C 1387.08 496.348 1400.03 503.031 1404.81 506.759 C 1412.79 512.992 1421.86 522.938 1429.53 530.111 C 1434.05 535.024 1442.81 542.108 1445.23 548.237 C 1450.62 561.874 1453.68 576.38 1457.11 590.586 C 1457.41 591.837 1468.2 594.495 1469.68 596.495 C 1485.66 618.074 1502.24 640.112 1514.28 664.181 C 1526.55 692.623 1527.72 733.914 1528.64 764.491 C 1529.2 783.053 1532.4 801.672 1529.81 820.048 C 1526.64 842.502 1519.5 865.354 1514.94 887.27 C 1506.77 926.482 1497.09 966.243 1483.78 1004.03 C 1476.46 1024.81 1465.12 1047.55 1457.63 1068.3 C 1459.7 1070.83 1458.57 1069.7 1462.65 1070.77 L 1464.21 1071.63 C 1466.05 1072.62 1466.86 1072.95 1468.87 1073.66 C 1472.05 1078.92 1469.38 1082.54 1467.69 1088.33 C 1465.9 1099.87 1465.18 1099.11 1454.4 1104.17 L 1448.81 1114.62 C 1453.78 1123.44 1454.88 1133.05 1452.66 1142.92 C 1442.47 1188.17 1433.12 1240.95 1400.51 1276.11 C 1382.98 1295.32 1364.11 1307.86 1349.09 1328.45 C 1340.21 1340.72 1328.25 1350.55 1312.56 1351.04 L 1311.38 1351.09 C 1309.04 1358.06 1302.59 1368.41 1298.74 1375.38 C 1272.63 1422.63 1238.1 1460.53 1196.82 1494.86 C 1188.77 1501.56 1118.31 1547.17 1118.22 1547.5 L 1119.22 1555.19 L 1120.39 1556.38 C 1130.55 1558.32 1158.21 1550.7 1169.97 1548.87 L 1171.1 1548.7 C 1191.24 1549.35 1212.46 1567.24 1231.39 1575.76 C 1244.15 1581.49 1251 1584.5 1264.57 1588.9 L 1271.08 1612.48 C 1271.39 1620.31 1274.75 1648.76 1276.54 1656.02 C 1287.29 1660.29 1296.94 1664 1307.88 1667.71 C 1313.36 1669.57 1328.96 1674.37 1333.29 1676.61 L 1333.23 1677.74 C 1341.5 1680.38 1343.77 1678.87 1347.65 1686.41 L 1349.43 1686.94 C 1360.97 1711.44 1357.86 1754.62 1363.42 1782.38 C 1368.76 1818.72 1368.8 1844.79 1368.1 1881.29 L 1367.64 1881.97 C 1367.03 1889.05 1365.58 1903.28 1366.61 1909.64 L 1367.75 1910.7 C 1342.91 1920 1318.22 1926.71 1292.84 1934.33 C 1266.3 1942.31 1237.84 1950.47 1210.33 1954.12 C 1185.41 1959.96 1167.81 1958.82 1147.02 1962.88 C 1135.37 1963.81 1124.67 1965.75 1112.94 1965.94 L 1108.22 1966.82 C 1094.87 1968.46 1077.62 1968.02 1063.7 1968.37 C 1061.37 1968.6 1053.81 1969.29 1051.87 1970.02 C 1036.68 1972.54 1016.59 1969.43 1001.15 1968.56 C 990.845 1967.98 980.517 1968.04 970.195 1967.99 C 966.898 1967.42 963.383 1966.98 960.057 1966.5 C 944.436 1965.32 929.177 1963.54 913.616 1961.76 L 910.884 1961.04 C 898.222 1960.28 888.577 1960.4 876.195 1957.37 C 869.374 1955.63 856.944 1954.09 849.09 1952.56 C 835.01 1950.32 816.02 1945.08 801.549 1941.73 C 801.079 1923.77 800.911 1905.81 801.044 1887.85 C 801.401 1871.83 801.5 1846.67 799.338 1831.68 C 794.764 1829.23 795.361 1830.07 794.323 1825.36 C 792.642 1814.54 786.379 1777.47 783.823 1767.98 C 771.556 1765.72 759.179 1764.86 747.878 1762.64 C 738.848 1744.2 713.249 1692.77 716.062 1675.51 C 714.875 1665.93 717.765 1648.07 714.808 1642.71 C 710.615 1639.75 708.692 1638.97 707.96 1633.74 L 723.627 1625.81 C 725.252 1621.18 732.3 1610.37 734.977 1605.46 C 755.914 1567.13 780.013 1551.62 813.168 1525.62 C 809.905 1519.23 802.64 1508.2 798.711 1501.87 L 768.611 1453.67 C 730.652 1392.44 703.211 1329.06 696.407 1256.85 C 696.925 1254.76 696.043 1247.3 695.205 1245.09 C 685.135 1245.39 682.472 1245.62 673.286 1241.28 C 670.732 1247.05 669.464 1247.22 663.416 1249.53 L 662.408 1249.9 C 649.677 1236.33 647.829 1227.53 648.761 1209.66 C 649.963 1187.89 657.943 1180.27 672.253 1165.89 C 670.277 1157.84 669.502 1149.09 666.833 1140.93 C 662.73 1128.38 656.186 1113.88 652.831 1101.41 C 650.506 1092.76 644.047 1068.16 644.26 1059.83 C 645.1 1026.96 652.682 990.624 661.85 958.977 C 665.377 946.803 671.162 928.843 682.512 922.817 C 682.77 918.796 682.743 914.52 682.802 910.469 L 676.859 903.637 C 676.813 899.744 676.435 895.95 677.77 892.34 C 679.18 888.161 679.322 881.828 679.664 877.257 C 690.808 877.118 691.36 876.331 700.132 882.914 C 704.429 877.566 701.222 819.294 702.74 806.975 C 709.775 749.893 726.006 695.005 750.633 643.094 C 755.947 631.892 766.149 620.258 772.657 609.48 C 780.236 597.667 787.49 585.737 794.949 573.976 C 795.401 555.715 802.897 526.414 816.25 513.801 C 831.781 499.131 865.599 492.991 879.387 476.552 C 883.292 471.897 887.252 460.892 890.865 454.633 z"></path>
  <path fill="url(#Gradient9)" d="M 890.865 454.633 C 930.337 436.565 973.336 428.416 1016.33 422.639 C 1028.14 421.052 1041.97 422.809 1053.98 421.729 C 1087.72 418.864 1125.82 418.83 1159.61 420.084 C 1176.08 420.695 1211.71 428.193 1228.85 431.137 C 1243.18 433.597 1277.89 447.228 1293.04 452.863 C 1323.42 464.285 1352.97 477.801 1381.48 493.314 C 1387.08 496.348 1400.03 503.031 1404.81 506.759 C 1412.79 512.992 1421.86 522.938 1429.53 530.111 C 1434.05 535.024 1442.81 542.108 1445.23 548.237 C 1450.62 561.874 1453.68 576.38 1457.11 590.586 C 1457.41 591.837 1468.2 594.495 1469.68 596.495 C 1485.66 618.074 1502.24 640.112 1514.28 664.181 C 1526.55 692.623 1527.72 733.914 1528.64 764.491 C 1529.2 783.053 1532.4 801.672 1529.81 820.048 C 1526.64 842.502 1519.5 865.354 1514.94 887.27 C 1506.77 926.482 1497.09 966.243 1483.78 1004.03 C 1476.46 1024.81 1465.12 1047.55 1457.63 1068.3 C 1459.7 1070.83 1458.57 1069.7 1462.65 1070.77 L 1464.21 1071.63 C 1466.05 1072.62 1466.86 1072.95 1468.87 1073.66 C 1472.05 1078.92 1469.38 1082.54 1467.69 1088.33 C 1465.9 1099.87 1465.18 1099.11 1454.4 1104.17 L 1448.81 1114.62 L 1445.38 1113.18 C 1439.63 1115.54 1435.33 1117.6 1429.17 1118.54 C 1420.18 1116.63 1392.61 1115.63 1382.98 1115.49 C 1383.26 1106 1382.59 1093.33 1376.7 1085.64 C 1353.13 1059.19 1298.29 1038.83 1263.65 1031.78 C 1226.87 1024.3 1142.57 1008.78 1131.54 1058 C 1113.92 1043.32 1105.44 1038.39 1087.73 1025.85 C 1077.12 1018.27 1056.5 1014.81 1043.46 1015.14 C 1033.79 1016.77 1024 1017.62 1014.26 1018.91 C 1007.11 1019.85 999.234 1021.7 992.231 1022.5 C 1001.22 992.187 973.782 974.527 950.61 962.808 C 903.368 938.914 848.77 925.01 795.693 926.563 C 763.429 927.508 754.95 931.234 740.324 960.879 C 729.11 957.973 716.322 953.605 705.326 949.909 C 704.154 944.71 704.057 943.783 701.699 939.131 C 698.147 935.806 691.012 928.415 689.099 924.135 L 682.512 922.817 C 682.77 918.796 682.743 914.52 682.802 910.469 L 676.859 903.637 C 676.813 899.744 676.435 895.95 677.77 892.34 C 679.18 888.161 679.322 881.828 679.664 877.257 C 690.808 877.118 691.36 876.331 700.132 882.914 C 704.429 877.566 701.222 819.294 702.74 806.975 C 709.775 749.893 726.006 695.005 750.633 643.094 C 755.947 631.892 766.149 620.258 772.657 609.48 C 780.236 597.667 787.49 585.737 794.949 573.976 C 795.401 555.715 802.897 526.414 816.25 513.801 C 831.781 499.131 865.599 492.991 879.387 476.552 C 883.292 471.897 887.252 460.892 890.865 454.633 z"></path>
  <path fill="url(#Gradient8)" d="M 738.214 897.911 C 748.377 879.478 754.715 860.794 768.57 844.276 C 771.726 840.513 775.171 827.582 777.944 822.691 C 806.923 750.302 808.265 700.988 893.471 674.902 C 905.505 672.036 918.732 672.717 931.159 672.164 C 1000 669.104 1073.19 679.247 1139.48 697.817 C 1167.06 705.543 1195.84 716.505 1223.82 724.776 C 1241.38 729.843 1258.81 735.35 1276.1 741.292 C 1285.56 744.631 1294.6 748.494 1304.24 752.045 C 1316.18 756.445 1328.86 758.888 1339.99 765.474 C 1364.33 779.883 1387.74 798.002 1404.02 821.366 C 1408.58 827.912 1415.04 850.318 1417.2 857.946 C 1427.34 893.67 1421.08 922.536 1418.28 958.215 C 1417.38 969.771 1420.59 988.821 1419.92 1001.4 C 1418.8 1022.06 1415.18 1044.15 1412 1064.7 C 1435.29 1076.03 1438.46 1071.43 1462.65 1070.77 L 1464.21 1071.63 C 1466.05 1072.62 1466.86 1072.95 1468.87 1073.66 C 1472.05 1078.92 1469.38 1082.54 1467.69 1088.33 C 1465.9 1099.87 1465.18 1099.11 1454.4 1104.17 L 1448.81 1114.62 L 1445.38 1113.18 C 1439.63 1115.54 1435.33 1117.6 1429.17 1118.54 C 1420.18 1116.63 1392.61 1115.63 1382.98 1115.49 C 1383.26 1106 1382.59 1093.33 1376.7 1085.64 C 1353.13 1059.19 1298.29 1038.83 1263.65 1031.78 C 1226.87 1024.3 1142.57 1008.78 1131.54 1058 C 1113.92 1043.32 1105.44 1038.39 1087.73 1025.85 C 1077.12 1018.27 1056.5 1014.81 1043.46 1015.14 C 1033.79 1016.77 1024 1017.62 1014.26 1018.91 C 1007.11 1019.85 999.234 1021.7 992.231 1022.5 C 1001.22 992.187 973.782 974.527 950.61 962.808 C 903.368 938.914 848.77 925.01 795.693 926.563 C 763.429 927.508 754.95 931.234 740.324 960.879 C 729.11 957.973 716.322 953.605 705.326 949.909 C 704.154 944.71 704.057 943.783 701.699 939.131 C 698.147 935.806 691.012 928.415 689.099 924.135 L 682.512 922.817 C 682.77 918.796 682.743 914.52 682.802 910.469 L 676.859 903.637 C 676.813 899.744 676.435 895.95 677.77 892.34 C 679.18 888.161 679.322 881.828 679.664 877.257 C 690.808 877.118 691.36 876.331 700.132 882.914 C 705.018 885.902 714.164 890.971 717.716 894.926 C 721.767 895.55 729.06 896.454 732.766 897.492 L 738.214 897.911 z"></path>
  <path fill="#CBCACA" d="M 679.664 877.257 C 690.808 877.118 691.36 876.331 700.132 882.914 C 705.018 885.902 714.164 890.971 717.716 894.926 C 721.767 895.55 729.06 896.454 732.766 897.492 L 738.214 897.911 C 766.558 898.389 792.563 897.875 824.579 900.9 C 886.081 906.71 947.169 928.539 998.026 964.586 C 998.464 965.043 998.901 965.5 999.339 965.957 C 1002.51 968.858 1015.56 980.565 1017.09 983.275 C 1023.24 988.416 1025.89 991.066 1033.12 994.34 L 1034.96 995.189 C 1050.4 1002.22 1096.89 1013.82 1114.65 1013.26 C 1122.29 1013.02 1140.97 1006.15 1149.09 1004.67 C 1164.79 1001.81 1200.85 999.063 1216.07 1000.63 C 1237.97 1003 1256.52 1004.06 1277.96 1009.36 C 1295.12 1013.6 1324.33 1025.87 1339.76 1028.56 C 1351.36 1034.41 1363.04 1040.11 1374.79 1045.65 C 1377.96 1048.04 1406.92 1062.62 1412 1064.7 C 1435.29 1076.03 1438.46 1071.43 1462.65 1070.77 L 1464.21 1071.63 C 1466.05 1072.62 1466.86 1072.95 1468.87 1073.66 C 1472.05 1078.92 1469.38 1082.54 1467.69 1088.33 C 1465.9 1099.87 1465.18 1099.11 1454.4 1104.17 L 1448.81 1114.62 L 1445.38 1113.18 C 1439.63 1115.54 1435.33 1117.6 1429.17 1118.54 C 1420.18 1116.63 1392.61 1115.63 1382.98 1115.49 C 1383.26 1106 1382.59 1093.33 1376.7 1085.64 C 1353.13 1059.19 1298.29 1038.83 1263.65 1031.78 C 1226.87 1024.3 1142.57 1008.78 1131.54 1058 C 1113.92 1043.32 1105.44 1038.39 1087.73 1025.85 C 1077.12 1018.27 1056.5 1014.81 1043.46 1015.14 C 1033.79 1016.77 1024 1017.62 1014.26 1018.91 C 1007.11 1019.85 999.234 1021.7 992.231 1022.5 C 1001.22 992.187 973.782 974.527 950.61 962.808 C 903.368 938.914 848.77 925.01 795.693 926.563 C 763.429 927.508 754.95 931.234 740.324 960.879 C 729.11 957.973 716.322 953.605 705.326 949.909 C 704.154 944.71 704.057 943.783 701.699 939.131 C 698.147 935.806 691.012 928.415 689.099 924.135 L 682.512 922.817 C 682.77 918.796 682.743 914.52 682.802 910.469 L 676.859 903.637 C 676.813 899.744 676.435 895.95 677.77 892.34 C 679.18 888.161 679.322 881.828 679.664 877.257 z"></path>
  <path fill="#E5E4E4" d="M 732.766 897.492 L 738.214 897.911 C 766.558 898.389 792.563 897.875 824.579 900.9 C 886.081 906.71 947.169 928.539 998.026 964.586 C 998.464 965.043 998.901 965.5 999.339 965.957 C 992.944 966.355 976.777 954.336 970.865 950.837 C 946.692 936.531 916.284 922.457 889.039 915.611 C 856.56 907.449 823.916 904.072 790.62 902.208 C 784.164 901.847 772.145 899.844 766.638 903.123 C 767.903 903.795 795.846 905.488 799.398 905.565 C 823.555 906.085 844.489 912.571 868.031 918.019 C 848.76 917.302 834.498 910.016 823.962 909.038 C 805.685 907.34 754.562 902.737 738.186 904.314 C 735.845 907.428 738.165 907.139 736.491 912.119 L 735.195 911.437 C 735.237 910.024 735.564 905.53 734.561 904.645 C 726.928 897.914 703.114 911.205 701.291 919.544 C 707.487 922.794 720.365 926.93 727.352 928.972 C 731.925 928.584 741.013 926.735 744.865 925.226 C 755.597 921.02 768.503 919.584 779.956 918.256 C 818.494 913.786 856.441 919.166 893.783 928.904 C 897.854 929.966 935.259 945.21 936.42 946.389 C 920.618 941.848 905.578 933.401 890.34 929.508 C 839.577 916.539 781.927 911.906 732.157 931.082 C 724.748 930.127 705.312 923.393 697.346 920.845 C 710.869 902.102 716.456 907.714 732.766 897.492 z"></path>
  <path fill="#FBFBFB" d="M 1017.09 983.275 C 1023.24 988.416 1025.89 991.066 1033.12 994.34 L 1034.96 995.189 C 1050.4 1002.22 1096.89 1013.82 1114.65 1013.26 C 1122.29 1013.02 1140.97 1006.15 1149.09 1004.67 C 1164.79 1001.81 1200.85 999.063 1216.07 1000.63 C 1237.97 1003 1256.52 1004.06 1277.96 1009.36 C 1295.12 1013.6 1324.33 1025.87 1339.76 1028.56 L 1338.12 1029.86 C 1322.23 1029.06 1294.33 1016.1 1277.34 1012.65 C 1231.23 1003.22 1178.58 997.446 1132.87 1011.33 C 1115.82 1016.5 1102.09 1016.97 1084.61 1012.04 C 1066.83 1007.03 1024.61 1001.45 1017.09 983.275 z"></path>
  <path fill="#FBFBFB" d="M 1043.46 1015.14 L 1042.02 1015.14 C 1037.73 1015.13 1036.45 1015.54 1033.17 1013.25 L 1032.47 1011.44 C 1043.32 1000.38 1097.38 1015.64 1104.4 1026.63 L 1103.85 1028.06 C 1099.8 1029.69 1093.32 1026.4 1087.73 1025.85 C 1077.12 1018.27 1056.5 1014.81 1043.46 1015.14 z"></path>
  <path fill="#A9A9A9" d="M677.77 892.34C681.498 894.854 691.291 901.677 693.4 905.112 692.282 910.178 688.368 920.002 689.099 924.135L682.512 922.817C682.77 918.796 682.743 914.52 682.802 910.469L676.859 903.637C676.813 899.744 676.435 895.95 677.77 892.34zM1449.19 1094.6C1456.31 1090.93 1459.96 1089.61 1467.69 1088.33 1465.9 1099.87 1465.18 1099.11 1454.4 1104.17L1448.81 1114.62 1445.38 1113.18C1447.39 1105.77 1448.38 1102.17 1449.19 1094.6z"></path>
  <path fill="#FBFBFB" d="M1204.76 1012.37C1205.63 1012.3 1206.5 1012.24 1207.37 1012.2 1226.16 1011.31 1248.47 1013.92 1266.93 1017.55 1299.12 1023.89 1377.72 1046.73 1400.57 1068.2 1406.95 1074.18 1425.79 1092.99 1425.03 1101.8 1424.83 1104.06 1423.62 1106.16 1421.93 1107.63 1415.72 1113.01 1406.11 1111.81 1398.62 1111.06 1396.13 1109.28 1396.66 1108.19 1395.69 1104.29 1379.7 1043.96 1259.35 1016.98 1205.37 1015.39 1194.9 1015.08 1186.02 1018.44 1175.88 1019.2 1183.01 1014.3 1196.19 1012.83 1204.76 1012.37zM694.463 884.963C699.406 887.188 702.408 889.591 704.318 894.695 699.501 893.159 695.585 890.039 694.463 884.963zM1457.7 1075.1 1458.78 1076.22 1448.74 1081.65 1447.63 1079.87 1448.77 1077.71C1452.42 1075.64 1453.43 1075.74 1457.7 1075.1z"></path>
  <path fill="url(#Gradient7)" d="M 1171.5 958.86 C 1206.16 954.826 1298.3 969.01 1328.04 988.529 C 1346.03 998.266 1365.3 1027.77 1374.79 1045.65 C 1363.04 1040.11 1351.36 1034.41 1339.76 1028.56 C 1324.33 1025.87 1295.12 1013.6 1277.96 1009.36 C 1256.52 1004.06 1237.97 1003 1216.07 1000.63 C 1214.94 998.297 1213.77 997.636 1211.78 995.934 C 1182.38 992.936 1162.29 998.787 1132.34 987.466 L 1133.39 985.005 C 1134.63 981.051 1135.3 979.691 1137.17 975.943 C 1138.11 976.974 1138.71 977.778 1139.81 978.611 L 1140.6 979.33 C 1145.19 970.725 1146.38 970.57 1154.13 964.627 C 1160.49 961.588 1164.6 960.09 1171.5 958.86 z"></path>
  <path fill="#787878" d="M 1171.5 958.86 C 1206.16 954.826 1298.3 969.01 1328.04 988.529 C 1321.27 989.18 1278.81 973.414 1268.74 972.36 C 1260.22 971.468 1252.02 973.479 1243.51 972.287 L 1247.3 971.419 L 1246.99 970.356 C 1229.48 967.44 1213.85 965.215 1196.24 963.611 C 1186.17 962.694 1182.6 959.273 1171.5 958.86 z"></path>
  <path fill="#F9C492" d="M 1211.78 995.934 C 1248.96 996.425 1311.31 1004.36 1339.76 1028.56 C 1324.33 1025.87 1295.12 1013.6 1277.96 1009.36 C 1256.52 1004.06 1237.97 1003 1216.07 1000.63 C 1214.94 998.297 1213.77 997.636 1211.78 995.934 z"></path>
  <path fill="#383838" d="M 1151.76 959.942 C 1152.79 962.59 1152.46 962.506 1154.13 964.627 C 1146.38 970.57 1145.19 970.725 1140.6 979.33 L 1139.81 978.611 C 1138.71 977.778 1138.11 976.974 1137.17 975.943 C 1140.37 968.143 1144.15 963.376 1151.76 959.942 z"></path>
  <path fill="#F9C492" d="M 1151.76 959.942 C 1152.79 962.59 1152.46 962.506 1154.13 964.627 C 1146.38 970.57 1145.19 970.725 1140.6 979.33 L 1139.81 978.611 C 1143.89 970.749 1146.48 967.173 1151.76 959.942 z"></path>
  <path fill="#383838" d="M 1132.34 987.466 C 1126.96 982.517 1128.75 977.72 1132.8 972.944 C 1131.61 976.91 1131.64 981.241 1133.39 985.005 L 1132.34 987.466 z"></path>
  <path fill="url(#Gradient6)" d="M 850.143 821.652 C 879.307 813.903 907.89 817.12 936.149 826.983 C 960.34 835.426 991.32 848.45 1008.97 867.4 C 1013.53 872.945 1027.72 897.258 1029.13 898.398 C 1029.17 894.741 1028.53 894.106 1030.24 891.626 C 1032.9 893.836 1033.84 898.052 1034.78 901.394 C 1035.44 908.694 1037.16 916.827 1030.26 921.255 C 1023.23 922.464 1017.78 918.542 1012.4 914.366 C 971.622 882.637 929.955 851.835 876.483 848.334 C 844.655 846.25 822.692 856.229 793.358 866.249 C 790.54 867.211 789.607 866.638 787.435 865.193 L 787.307 863.137 C 794.623 851.604 837.05 827.423 850.143 821.652 z"></path>
  <path fill="#787878" d="M 850.143 821.652 C 879.307 813.903 907.89 817.12 936.149 826.983 C 960.34 835.426 991.32 848.45 1008.97 867.4 C 1007.73 867.502 1004.24 867.72 1003.35 867.195 C 984.606 856.227 967.295 845.674 946.6 838.499 L 950.615 841.229 C 942.158 838.464 929.614 828.845 920.185 826.91 C 907.022 824.393 892.308 822.148 878.923 821.824 C 868.727 821.577 860.654 823.909 850.143 821.652 z"></path>
  <path fill="#383838" d="M 1029.13 898.398 C 1029.17 894.741 1028.53 894.106 1030.24 891.626 C 1032.9 893.836 1033.84 898.052 1034.78 901.394 C 1033.42 901.384 1032.17 901.354 1030.82 901.59 L 1031.03 900.17 L 1029.13 898.398 z"></path>
  <path fill="#3F3434" d="M 1040.27 906.628 C 1041.09 907.369 1041.18 907.896 1041.73 908.969 C 1041.49 915.787 1039.84 918.711 1035.88 924.259 L 1034.63 922.337 C 1037.75 915.634 1038.55 913.817 1040.27 906.628 z"></path>
  <path fill="#787878" d="M 1366.95 528.658 C 1372.4 532.022 1376.06 542.432 1378.14 548.464 L 1376.93 548.569 C 1375.7 545.255 1373.64 541.914 1371.88 538.795 C 1358.35 540.099 1347.71 539.515 1334.43 534.953 C 1332.15 534.168 1333 533.813 1330.06 533.851 C 1333.78 536.872 1349.6 546.877 1349.4 551.776 C 1332.75 534.557 1295.17 511.376 1273.6 499.287 C 1263.62 493.688 1211.59 472.477 1205.83 466.474 C 1213.93 468.323 1256.97 490.897 1264 491.294 C 1262.3 489.329 1262.41 489.484 1262.03 486.908 C 1263.17 481.715 1271.97 474.794 1277.42 474.475 C 1274.39 469.885 1242.43 459.026 1236.72 456.7 L 1237.06 456.086 C 1249.8 459.226 1266.17 466.032 1277.81 472.335 C 1292.03 476.236 1303.93 483.264 1317.26 489.261 C 1340.76 499.837 1363.24 515.849 1378.96 536.717 L 1378.99 537.804 C 1374.83 535.601 1370.14 527.426 1364.97 523.735 L 1364.55 524.471 L 1366.95 528.658 z"></path>
  <path fill="#676767" d="M 1277.81 472.335 C 1292.03 476.236 1303.93 483.264 1317.26 489.261 C 1340.76 499.837 1363.24 515.849 1378.96 536.717 L 1378.99 537.804 C 1374.83 535.601 1370.14 527.426 1364.97 523.735 L 1364.55 524.471 L 1366.95 528.658 C 1357.77 522.392 1350.74 513.173 1337.62 505.152 C 1320.39 494.622 1293.22 483.219 1277.81 472.335 z"></path>
  <path fill="#787878" d="M 1122.76 464.422 C 1112.63 463.358 1102.5 462.587 1092.36 461.698 C 1067.62 459.529 1043.75 455.028 1018.89 453.504 C 1042.15 451.793 1071.83 459.242 1096.44 460.257 C 1101.41 460.462 1136.08 461.92 1137.58 462.522 C 1158.21 470.796 1185.7 485.291 1205.69 496.521 C 1207.14 497.34 1207.41 497.644 1209.23 498.393 L 1210.88 498.688 C 1215.5 500.959 1216.48 501.812 1219.67 505.923 C 1218.95 505.377 1216.32 503.28 1215.41 503.368 C 1194.83 505.371 1119.16 494.928 1122.76 464.422 z"></path>
  <path fill="#676767" d="M 1122.76 464.422 C 1112.63 463.358 1102.5 462.587 1092.36 461.698 C 1067.62 459.529 1043.75 455.028 1018.89 453.504 C 1042.15 451.793 1071.83 459.242 1096.44 460.257 C 1101.41 460.462 1136.08 461.92 1137.58 462.522 C 1158.21 470.796 1185.7 485.291 1205.69 496.521 C 1207.14 497.34 1207.41 497.644 1209.23 498.393 C 1174.75 492.622 1154.48 474.256 1122.76 464.422 z"></path>
  <path fill="#787878" d="M 1321.02 481.008 L 1322.25 480.839 C 1343.18 490.841 1399.14 517.26 1407.62 537.033 C 1408.51 539.106 1410.35 542.165 1409.52 544.227 C 1404.05 532.244 1402.85 528.754 1390.49 521.565 L 1389.4 521.911 C 1392.04 526.441 1402.72 540.363 1403.43 543.558 L 1402.37 542.662 C 1381.45 517.697 1369.4 509.55 1339.88 495.51 C 1336.97 494.129 1323.06 488.238 1321.92 487.211 C 1326.49 486.847 1345.2 497.697 1353.86 499.509 C 1350.68 494.653 1329.2 486.145 1321.72 481.451 L 1321.02 481.008 z"></path>
  <path fill="#676767" d="M 1210.88 498.688 C 1225.33 499.42 1230.48 508.127 1241.09 516.562 C 1247.34 521.534 1256.51 525.503 1262.06 530.508 C 1260.49 530.497 1222.7 508.172 1219.67 505.923 C 1216.48 501.812 1215.5 500.959 1210.88 498.688 z"></path>
  <path fill="url(#Gradient5)" d="M 740.324 960.879 C 754.95 931.234 763.429 927.508 795.693 926.563 C 848.77 925.01 903.368 938.914 950.61 962.808 C 973.782 974.527 1001.22 992.187 992.231 1022.5 C 999.234 1021.7 1007.11 1019.85 1014.26 1018.91 C 1024 1017.62 1033.79 1016.77 1043.46 1015.14 C 1056.5 1014.81 1077.12 1018.27 1087.73 1025.85 C 1105.44 1038.39 1113.92 1043.32 1131.54 1058 C 1142.57 1008.78 1226.87 1024.3 1263.65 1031.78 C 1298.29 1038.83 1353.13 1059.19 1376.7 1085.64 C 1382.59 1093.33 1383.26 1106 1382.98 1115.49 C 1392.61 1115.63 1420.18 1116.63 1429.17 1118.54 C 1427.05 1120.25 1426.25 1120.77 1424.47 1122.86 C 1407.95 1141.14 1405.31 1149.98 1396.26 1172.88 C 1391.42 1188.36 1384.88 1191.32 1377.61 1203.1 C 1372.37 1208.35 1367.96 1211.99 1365.61 1219.1 C 1357.46 1245.72 1347.87 1258.5 1337.44 1281.89 C 1327.37 1295.19 1295.46 1358.53 1283.38 1361.6 L 1279.74 1360.33 C 1273.36 1365.93 1256.86 1385.38 1251.28 1387.22 L 1249.64 1385.84 C 1250.36 1381.41 1250.23 1381.91 1248.56 1379.03 L 1245.99 1378.42 C 1239.58 1380.61 1218.85 1403.75 1211.3 1410.7 C 1210.6 1404.52 1211.31 1402.18 1205.75 1399.17 C 1197.48 1399.16 1191.51 1406.26 1184.22 1409.85 C 1179.96 1411.94 1176.73 1412.9 1172.25 1414.29 C 1169.53 1393.45 1168.7 1383.68 1155.68 1364.99 C 1134.99 1335.29 1094.7 1315.09 1060.93 1305.04 C 1053.75 1302.91 1031.54 1299.74 1023.16 1298.43 C 1011.23 1297.92 983.15 1291.16 973.394 1285.45 C 926.687 1270.04 895.649 1264.58 845.445 1274.93 C 815.424 1281.12 804.541 1291.6 788.835 1316.43 C 785.904 1313.74 782.81 1310.68 780.277 1307.64 C 772.162 1297.89 767.756 1277.63 755.488 1296.5 C 751.818 1291.65 749.029 1286.2 747.251 1280.38 C 744.926 1272.8 743.64 1253.96 739.001 1250.45 C 734.199 1252.1 734.989 1256.17 730.503 1258.76 C 723.808 1244.41 722.82 1234.63 718.439 1220.5 C 715.516 1219.92 714.718 1220.09 712.538 1218.1 C 702.569 1173.06 699.713 1098.41 708.267 1053.03 C 709.752 1043.61 707.858 1038.39 705.656 1029.16 C 702.715 1016.56 702.907 1013.25 703.465 1000.28 C 707.941 986.011 706.975 964.52 705.326 949.909 C 716.322 953.605 729.11 957.973 740.324 960.879 z"></path>
  <path fill="#F9C492" d="M 740.324 960.879 C 754.95 931.234 763.429 927.508 795.693 926.563 C 848.77 925.01 903.368 938.914 950.61 962.808 C 973.782 974.527 1001.22 992.187 992.231 1022.5 C 984.592 1052.91 978.546 1077.06 957.922 1101.4 C 955.733 1103.98 946.909 1115.62 945.837 1117.88 C 920.184 1133.19 906.938 1139.06 876.966 1136.37 C 865.719 1135.64 851.16 1137.42 840.27 1134.17 C 824.981 1129.6 802.157 1124.65 788.349 1117.25 C 777.921 1111.66 762.958 1098.49 753.967 1090.76 C 752.759 1088.29 750.322 1085.24 748.514 1082.98 C 736.154 1067.39 732.513 1044.69 729.682 1025.38 C 726.598 1004.33 733.484 980.479 740.324 960.879 z"></path>
  <path fill="#383838" d="M 793.976 986.332 C 800.34 981.85 805.367 978.383 812.798 975.688 C 854.958 960.398 917.855 973.087 951.881 1000.97 C 957.315 1014.52 968.94 1043.45 969.081 1057.34 L 967.045 1059.35 C 960.678 1062.42 945.197 1065.58 937.878 1066.58 C 937.044 1066.78 936.209 1066.97 935.373 1067.16 C 895.442 1075.86 838.13 1059.47 811.796 1027.84 C 799.777 1013.4 797.691 1003.91 793.976 986.332 z"></path>
  <path fill="#FBFBFB" d="M 894.298 981.41 C 914.036 987.342 943.854 994.27 952.641 1012.98 C 958.814 1026.13 964.502 1042.49 967.178 1056.84 L 966.37 1058.86 L 967.045 1059.35 C 960.678 1062.42 945.197 1065.58 937.878 1066.58 L 933.692 1064.2 C 928.847 1063.72 914.715 1064.86 907.9 1064.47 C 882.666 1063.03 853.404 1056.19 832.981 1040.84 L 835.179 1039.21 C 873.502 1057.13 902.401 1019.12 894.298 981.41 z"></path>
  <path d="M 966.37 1058.86 L 967.045 1059.35 C 960.678 1062.42 945.197 1065.58 937.878 1066.58 L 933.692 1064.2 C 942.86 1063.45 956.974 1060.52 966.37 1058.86 z"></path>
  <path fill="#FBFBFB" d="M 820.905 1029.94 C 813.91 1022.05 802.409 1002.5 806.418 991.864 C 808.974 985.085 814.941 983.278 820.986 980.45 C 819.661 983.744 818.52 987.109 817.571 990.53 C 813.567 1005.23 816.35 1016.31 823.612 1028.98 L 820.905 1029.94 z"></path>
  <path fill="#E5E4E4" d="M 823.612 1028.98 C 828.186 1033.7 829.756 1035.41 835.179 1039.21 L 832.981 1040.84 C 827.352 1036.93 825.368 1035.19 820.905 1029.94 L 823.612 1028.98 z"></path>
  <path fill="#FBFBFB" d="M 850.42 975.538 C 852.974 974.917 859.309 975.872 862.307 976.167 L 860.496 978.56 C 856.806 983.507 856.728 984.163 851.517 987.631 C 850.677 987.625 849.837 987.601 848.997 987.56 C 844.023 987.298 842.791 986.414 839.548 982.731 C 838.65 979.338 838.606 981.035 840.135 977.497 C 844.077 975.023 845.34 975.765 850.42 975.538 z"></path>
  <path fill="#C27C56" d="M 861.189 944.293 C 890.955 939.721 945.282 960.983 960.563 987.597 C 965.652 996.459 971.436 1019.48 972.57 1029.61 C 968.288 1027.13 965.921 1002.48 962.018 995.671 C 956.73 986.443 954.465 983.836 946.943 976.43 C 940.488 971.491 927.722 962.073 920.402 958.87 C 894.276 947.44 860.362 943.931 833.402 954.711 C 823.746 958.573 814.431 965.108 805.029 968.385 C 807.244 965.364 811.44 963.309 814.451 961.006 C 828.97 949.9 843.539 946.877 861.189 944.293 z"></path>
  <path fill="#F9C492" d="M 1131.54 1058 C 1142.57 1008.78 1226.87 1024.3 1263.65 1031.78 C 1298.29 1038.83 1353.13 1059.19 1376.7 1085.64 C 1382.59 1093.33 1383.26 1106 1382.98 1115.49 C 1382 1153.58 1366.25 1183.48 1339.55 1209.92 C 1327.06 1222.3 1314.13 1227.76 1297.32 1232.66 C 1269.72 1234.75 1270.39 1238.1 1240.71 1232.97 C 1206.13 1226.99 1181.29 1215.49 1152.03 1196.08 C 1145.58 1191.81 1135.19 1175.06 1131.26 1168.75 C 1124.7 1154.36 1123.83 1137.61 1122.37 1121.87 C 1120.35 1100.17 1126.3 1078.82 1131.54 1058 z"></path>
  <path fill="#383838" d="M 1132.13 1099.5 L 1130.82 1100.04 C 1132.93 1086.08 1152.7 1069.6 1162.95 1060.76 C 1201.97 1027.09 1311.63 1081.28 1328.23 1121.86 L 1327.15 1122.47 C 1317.56 1128.05 1308.92 1135.57 1299.47 1140.84 C 1245.35 1171 1175.53 1149.39 1135.6 1105.46 C 1135.11 1104.93 1134.73 1103.83 1134.45 1103.14 L 1132.13 1099.5 z"></path>
  <path fill="#FBFBFB" d="M1132.13 1099.5 1134.9 1095.62 1136.52 1095.55C1140.68 1099.73 1141.71 1106.23 1146.55 1113.12 1142.46 1109.83 1138.4 1106.61 1134.45 1103.14L1132.13 1099.5zM1222.9 1060.82C1252.1 1069.45 1270.11 1077.92 1295.88 1093.38 1304.22 1099.39 1311.32 1109.66 1315.94 1118.76 1304.11 1129.17 1288.9 1141.51 1273.62 1146.14 1230.42 1156.04 1202.65 1146 1164.57 1125.59 1174.66 1127.24 1182.71 1128.21 1192.74 1125.15 1205.06 1121.38 1215.33 1112.78 1221.22 1101.32 1228.19 1087.69 1227.41 1074.8 1222.9 1060.82z"></path>
  <path fill="#CBCACA" d="M 1295.88 1093.38 C 1304.22 1099.39 1311.32 1109.66 1315.94 1118.76 C 1304.11 1129.17 1288.9 1141.51 1273.62 1146.14 C 1278.45 1140.07 1289.04 1137.28 1293.95 1132.92 C 1298.86 1128.57 1303.42 1112.55 1305.75 1105.76 C 1301.81 1101.88 1297.38 1098.44 1295.88 1093.38 z"></path>
  <path fill="#494849" d="M 1159.61 1090.73 C 1164.22 1096.11 1165.52 1097.06 1171.11 1101.22 L 1184.66 1101.1 C 1186.78 1102.57 1184.26 1104.63 1184.14 1107.49 C 1184.14 1107.49 1185.67 1111.94 1185.79 1112.3 L 1181.47 1113.62 C 1170.21 1108.54 1151.6 1119.23 1159.61 1090.73 z"></path>
  <path fill="#FBFBFB" d="M 1180.36 1056 C 1183.03 1056.03 1182.9 1055.92 1185.28 1057.06 C 1185.7 1062.53 1178.75 1066.56 1174.07 1067.83 C 1169.78 1066.94 1169.09 1067.63 1166.98 1065.04 C 1168.75 1062.22 1175.43 1059.48 1179.47 1056.64 L 1180.36 1056 z"></path>
  <path fill="#C27C56" d="M 1187.33 1037.34 C 1229.03 1036.25 1271.35 1048.7 1305.73 1073.32 C 1311.85 1077.71 1325.71 1095.24 1326.37 1102.16 C 1320.02 1094.81 1311.49 1084.25 1304.29 1078.19 C 1289.79 1066.27 1275.33 1059.69 1257.46 1052.06 C 1230.64 1040.61 1198.06 1035.92 1169.57 1044.29 C 1167.02 1045.04 1157.35 1053.22 1153.31 1054.94 L 1153.57 1053.52 C 1162.6 1044.16 1174.52 1038.83 1187.33 1037.34 z"></path>
  <path fill="#A9A9A9" d="M 705.326 949.909 C 716.322 953.605 729.11 957.973 740.324 960.879 C 733.484 980.479 726.598 1004.33 729.682 1025.38 C 732.513 1044.69 736.154 1067.39 748.514 1082.98 C 750.322 1085.24 752.759 1088.29 753.967 1090.76 C 762.958 1098.49 777.921 1111.66 788.349 1117.25 C 802.157 1124.65 824.981 1129.6 840.27 1134.17 C 851.16 1137.42 865.719 1135.64 876.966 1136.37 C 906.938 1139.06 920.184 1133.19 945.837 1117.88 C 946.909 1115.62 955.733 1103.98 957.922 1101.4 C 978.546 1077.06 984.592 1052.91 992.231 1022.5 C 999.234 1021.7 1007.11 1019.85 1014.26 1018.91 C 1024 1017.62 1033.79 1016.77 1043.46 1015.14 C 1056.5 1014.81 1077.12 1018.27 1087.73 1025.85 C 1105.44 1038.39 1113.92 1043.32 1131.54 1058 C 1126.3 1078.82 1120.35 1100.17 1122.37 1121.87 C 1123.83 1137.61 1124.7 1154.36 1131.26 1168.75 C 1135.19 1175.06 1145.58 1191.81 1152.03 1196.08 C 1181.29 1215.49 1206.13 1226.99 1240.71 1232.97 C 1270.39 1238.1 1269.72 1234.75 1297.32 1232.66 C 1314.13 1227.76 1327.06 1222.3 1339.55 1209.92 C 1366.25 1183.48 1382 1153.58 1382.98 1115.49 C 1392.61 1115.63 1420.18 1116.63 1429.17 1118.54 C 1427.05 1120.25 1426.25 1120.77 1424.47 1122.86 C 1407.95 1141.14 1405.31 1149.98 1396.26 1172.88 C 1391.42 1188.36 1384.88 1191.32 1377.61 1203.1 C 1372.37 1208.35 1367.96 1211.99 1365.61 1219.1 C 1365.5 1219.17 1345.48 1237.08 1341.41 1240.44 C 1320.51 1257.74 1278.85 1261.23 1252.77 1258.75 C 1240.77 1257.6 1213.1 1251.36 1201.13 1248.08 C 1195.83 1246.63 1179.22 1238.05 1172.56 1235.27 C 1142.81 1222.88 1129.47 1212.09 1110.19 1186.44 C 1090.09 1159.71 1091.47 1120.09 1095.39 1088.37 C 1096.79 1077.09 1100.39 1065.09 1102.25 1053.58 C 1077.98 1027.85 1053.24 1022.39 1019.57 1032.48 C 1009.02 1070.49 994.934 1113.37 963.78 1139.68 C 946.685 1149.05 921.38 1160.43 902.479 1161.04 C 858.634 1162.44 812.906 1157.03 774.148 1135.71 C 737.046 1115.31 720.222 1096.06 710.324 1054.01 L 708.267 1053.03 C 709.752 1043.61 707.858 1038.39 705.656 1029.16 C 702.715 1016.56 702.907 1013.25 703.465 1000.28 C 707.941 986.011 706.975 964.52 705.326 949.909 z"></path>
  <path fill="#787878" d="M753.967 1090.76C762.958 1098.49 777.921 1111.66 788.349 1117.25 802.157 1124.65 824.981 1129.6 840.27 1134.17 851.16 1137.42 865.719 1135.64 876.966 1136.37 906.938 1139.06 920.184 1133.19 945.837 1117.88 945.73 1118.45 945.648 1119.26 945.165 1119.64 902.242 1153.33 831.254 1139.4 785.999 1118.03 781.017 1115.67 755.037 1095.81 753.967 1090.76zM1297.32 1232.66 1298.74 1233.45C1289.77 1234.43 1275.25 1238.47 1266.36 1238.22 1255.32 1237.9 1221.88 1232.58 1211.76 1229 1196.24 1223.5 1161.17 1207.22 1148.84 1195.85 1143.39 1190.83 1131.39 1176.22 1131.26 1168.75 1135.19 1175.06 1145.58 1191.81 1152.03 1196.08 1181.29 1215.49 1206.13 1226.99 1240.71 1232.97 1270.39 1238.1 1269.72 1234.75 1297.32 1232.66z"></path>
  <path fill="#E5E4E4" d="M1348.28 1219.13C1350.32 1219.44 1349.62 1219.31 1351.51 1220.43 1350.79 1224.87 1346.26 1229.22 1342.79 1231.78 1322.19 1246.98 1305.27 1251.83 1280.25 1252.6L1277.17 1252.33C1279.81 1248.96 1303.1 1244.39 1308.61 1241.81 1320.87 1236.09 1337.71 1227.1 1348.28 1219.13zM975.038 1112.68C975.458 1112.93 976.462 1114.08 976.852 1114.49 976.424 1122.02 965.727 1129.12 960.178 1133.74 943.585 1147.55 929.937 1151.21 908.988 1154.1 907.422 1153.82 908.104 1154.18 906.982 1152.94 915.045 1149.21 930.191 1144.46 937.077 1139.78 946.262 1133.53 968.742 1120.55 975.038 1112.68z"></path>
  <path fill="#DF986B" d="M 915.69 1226.75 C 920.192 1227.61 925.773 1230.17 930.459 1231.83 C 939.258 1234.94 954.283 1235.91 961.502 1240.07 C 963.231 1242.51 962.919 1241.89 965.186 1243.66 C 972.966 1249.75 977.114 1263.31 981.274 1271.98 C 1023.87 1301.92 1024.81 1270.83 1065.46 1267.76 C 1071.82 1267.28 1077.24 1270.25 1083.05 1270.48 L 1083.03 1269.55 C 1076.27 1267.44 1073.02 1265.39 1067.37 1261.15 C 1079.46 1258.95 1102.91 1290.39 1103.49 1256.82 C 1106.76 1281.8 1095.44 1285.31 1075.42 1288.61 C 1057.26 1291.6 1027.4 1289.14 1011.62 1294.1 C 1016.88 1295.22 1019.96 1294.16 1023.16 1298.43 C 1011.23 1297.92 983.15 1291.16 973.394 1285.45 C 977.299 1285.31 982.115 1286.86 987.251 1287.03 L 986.342 1286.27 L 984.981 1285.08 C 977.996 1279.09 963.893 1254.59 952.592 1262.37 C 955.602 1264.03 955.885 1264.33 958.404 1266.46 L 957.525 1266.67 C 939.556 1257.06 917.638 1249.14 915.69 1226.75 z"></path>
  <path fill="#A56645" d="M970.017 1262.77C963.904 1258.61 951.871 1258.6 949.708 1249.3 957.659 1242.59 969.576 1257.18 973.462 1262.76L970.017 1262.77zM1051.5 1272.14C1056.31 1271.59 1061.63 1275.53 1065.95 1278.06 1060.72 1279.69 1057.28 1281.17 1051.76 1280.7 1046.86 1280.05 1038.9 1279.77 1033.73 1279.45 1040.69 1275.84 1044.01 1274.67 1051.5 1272.14z"></path>
  <path fill="#C27C56" d="M 973.462 1262.76 C 975.334 1265.91 979.363 1271.48 979.215 1274.66 C 975.211 1272.36 972.351 1266.8 970.017 1262.77 L 973.462 1262.76 z"></path>
  <path fill="#F1B084" d="M 915.69 1226.75 C 917.097 1221.82 923.745 1203.34 930.47 1205.73 C 927.786 1210.74 921.831 1220.5 922.33 1225.98 C 927.697 1230.17 962.069 1228.61 964.689 1231.62 L 960.459 1233.91 C 961.726 1235.22 962.904 1236.58 964.062 1237.99 L 963.995 1239.51 L 961.502 1240.07 C 954.283 1235.91 939.258 1234.94 930.459 1231.83 C 925.773 1230.17 920.192 1227.61 915.69 1226.75 z"></path>
  <path fill="#613536" d="M 1041.24 1587.6 L 1045.17 1586.4 C 1063.27 1580.93 1110.61 1547.51 1118.22 1547.5 L 1119.22 1555.19 L 1120.39 1556.38 C 1130.55 1558.32 1158.21 1550.7 1169.97 1548.87 L 1171.1 1548.7 C 1191.24 1549.35 1212.46 1567.24 1231.39 1575.76 C 1244.15 1581.49 1251 1584.5 1264.57 1588.9 L 1271.08 1612.48 C 1271.39 1620.31 1274.75 1648.76 1276.54 1656.02 C 1287.29 1660.29 1296.94 1664 1307.88 1667.71 C 1313.36 1669.57 1328.96 1674.37 1333.29 1676.61 L 1333.23 1677.74 C 1341.5 1680.38 1343.77 1678.87 1347.65 1686.41 L 1349.43 1686.94 C 1360.97 1711.44 1357.86 1754.62 1363.42 1782.38 C 1368.76 1818.72 1368.8 1844.79 1368.1 1881.29 L 1367.64 1881.97 C 1367.03 1889.05 1365.58 1903.28 1366.61 1909.64 L 1367.75 1910.7 C 1342.91 1920 1318.22 1926.71 1292.84 1934.33 C 1266.3 1942.31 1237.84 1950.47 1210.33 1954.12 C 1185.41 1959.96 1167.81 1958.82 1147.02 1962.88 C 1135.37 1963.81 1124.67 1965.75 1112.94 1965.94 L 1108.22 1966.82 C 1094.87 1968.46 1077.62 1968.02 1063.7 1968.37 C 1061.37 1968.6 1053.81 1969.29 1051.87 1970.02 C 1036.68 1972.54 1016.59 1969.43 1001.15 1968.56 C 990.845 1967.98 980.517 1968.04 970.195 1967.99 C 966.898 1967.42 963.383 1966.98 960.057 1966.5 C 944.436 1965.32 929.177 1963.54 913.616 1961.76 L 910.884 1961.04 C 898.222 1960.28 888.577 1960.4 876.195 1957.37 C 869.374 1955.63 856.944 1954.09 849.09 1952.56 C 835.01 1950.32 816.02 1945.08 801.549 1941.73 C 801.079 1923.77 800.911 1905.81 801.044 1887.85 C 801.401 1871.83 801.5 1846.67 799.338 1831.68 C 794.764 1829.23 795.361 1830.07 794.323 1825.36 C 792.642 1814.54 786.379 1777.47 783.823 1767.98 C 806.042 1773.26 819.75 1773.04 842.789 1768.66 C 864.317 1764.1 889.973 1757.86 909.862 1748.23 C 914.821 1746.25 919.76 1744.23 924.676 1742.15 C 933.146 1736.88 933.314 1738.18 942.475 1741.06 C 940.063 1739.37 939.837 1739.47 938.317 1737.02 C 943.972 1725.78 1007.14 1698.71 1006.19 1674.32 C 1006.1 1671.88 1006.25 1659.93 1006.13 1659.66 C 1003.51 1660.76 1003.37 1660.95 1000.59 1661.26 L 1000.9 1659.67 C 1002.68 1657.52 1005 1657.45 1007.67 1656.6 C 1017.05 1653.6 1030.26 1634.23 1034.75 1625.32 L 1033.52 1626.63 C 1036.19 1620.49 1039.67 1613.73 1042.53 1607.64 C 1042.16 1605.55 1041.85 1603.77 1041.59 1602.3 C 1041.11 1598.87 1040.89 1592.75 1038.66 1590.63 L 1035.87 1591.03 L 1035.48 1591.02 C 1035.2 1592.31 1042.38 1582.43 1043.35 1580.59 C 1045.71 1577.96 1046.88 1574.06 1048.21 1570.69 C 1051.33 1568.54 1050.03 1569.12 1054.66 1569.55 C 1050.54 1578.52 1048.05 1580.88 1041.24 1587.6 z"></path>
  <path fill="#FBFBFB" d="M 942.475 1741.06 C 982.828 1751.22 1017.82 1755.35 1059.01 1746.08 C 1072.15 1743.12 1088.75 1737.33 1101.69 1735.92 C 1098.69 1741.19 1093.96 1749 1089.8 1753.38 C 1077.22 1760.4 1049.6 1763.73 1047.59 1777.95 C 1043.87 1804.32 1045.95 1838.63 1047.16 1865.12 C 1051.91 1864.6 1053.42 1863.35 1055.85 1859.56 C 1065.11 1860.38 1087.8 1862.41 1095.36 1865.97 L 1096.46 1868.79 C 1100.34 1899.61 1104.27 1930.38 1109.05 1961.07 C 1109.38 1963.19 1109.21 1964.92 1108.22 1966.82 C 1094.87 1968.46 1077.62 1968.02 1063.7 1968.37 C 1061.37 1968.6 1053.81 1969.29 1051.87 1970.02 C 1036.68 1972.54 1016.59 1969.43 1001.15 1968.56 C 990.845 1967.98 980.517 1968.04 970.195 1967.99 C 966.898 1967.42 963.383 1966.98 960.057 1966.5 C 944.436 1965.32 929.177 1963.54 913.616 1961.76 L 910.884 1961.04 C 898.222 1960.28 888.577 1960.4 876.195 1957.37 C 869.374 1955.63 856.944 1954.09 849.09 1952.56 C 835.01 1950.32 816.02 1945.08 801.549 1941.73 C 801.079 1923.77 800.911 1905.81 801.044 1887.85 C 801.401 1871.83 801.5 1846.67 799.338 1831.68 C 794.764 1829.23 795.361 1830.07 794.323 1825.36 C 792.642 1814.54 786.379 1777.47 783.823 1767.98 C 806.042 1773.26 819.75 1773.04 842.789 1768.66 C 864.317 1764.1 889.973 1757.86 909.862 1748.23 C 914.821 1746.25 919.76 1744.23 924.676 1742.15 C 933.146 1736.88 933.314 1738.18 942.475 1741.06 z"></path>
  <path fill="#613536" d="M 909.862 1748.23 C 914.821 1746.25 919.76 1744.23 924.676 1742.15 C 927.491 1746.78 929.404 1750.27 932.982 1754.39 C 941.945 1758.22 954.736 1763.87 963.874 1766.97 L 967.742 1773.12 C 975.919 1786.09 975.006 1844.68 974.977 1861.72 L 973.631 1865.01 L 971.374 1865.13 C 968.409 1862.79 968.471 1862.81 966.282 1859.71 C 953.651 1859.72 938.537 1864.44 926.097 1864.42 L 924.4 1864.85 C 918.587 1894.09 917.286 1932.22 910.884 1961.04 C 898.222 1960.28 888.577 1960.4 876.195 1957.37 C 869.374 1955.63 856.944 1954.09 849.09 1952.56 C 835.01 1950.32 816.02 1945.08 801.549 1941.73 C 801.079 1923.77 800.911 1905.81 801.044 1887.85 C 801.401 1871.83 801.5 1846.67 799.338 1831.68 C 794.764 1829.23 795.361 1830.07 794.323 1825.36 C 792.642 1814.54 786.379 1777.47 783.823 1767.98 C 806.042 1773.26 819.75 1773.04 842.789 1768.66 C 864.317 1764.1 889.973 1757.86 909.862 1748.23 z"></path>
  <path fill="#AF3E44" d="M 801.044 1887.85 C 819.86 1885.33 828.212 1879.58 842.373 1876.57 C 863.494 1872.09 903.312 1865.33 924.4 1864.85 C 918.587 1894.09 917.286 1932.22 910.884 1961.04 C 898.222 1960.28 888.577 1960.4 876.195 1957.37 C 869.374 1955.63 856.944 1954.09 849.09 1952.56 C 835.01 1950.32 816.02 1945.08 801.549 1941.73 C 801.079 1923.77 800.911 1905.81 801.044 1887.85 z"></path>
  <path fill="#704040" d="M 849.09 1952.56 C 855.536 1950.61 872.59 1945.48 878.098 1949.46 C 878.715 1953.34 878.012 1953.05 876.195 1957.37 C 869.374 1955.63 856.944 1954.09 849.09 1952.56 z"></path>
  <path fill="#893D40" d="M 783.823 1767.98 C 806.042 1773.26 819.75 1773.04 842.789 1768.66 C 835.743 1777.53 801.2 1820.69 794.323 1825.36 C 792.642 1814.54 786.379 1777.47 783.823 1767.98 z"></path>
  <path fill="#AF3E44" d="M 909.862 1748.23 C 914.821 1746.25 919.76 1744.23 924.676 1742.15 C 927.491 1746.78 929.404 1750.27 932.982 1754.39 C 929.954 1759.03 928.529 1763.12 926.495 1768.21 C 920.742 1761.72 915.195 1755.06 909.862 1748.23 z"></path>
  <path fill="#3F3434" d="M 955.535 1842.44 C 958.061 1841.74 957.172 1841.94 959.939 1842.19 L 960.497 1843.24 C 955.38 1844.65 945.849 1845.28 940.235 1845.81 L 935.51 1845.8 L 935.14 1844.86 C 942.342 1843.26 948.197 1842.98 955.535 1842.44 z"></path>
  <path fill="#AF3E44" d="M 926.097 1864.42 C 938.537 1864.44 953.651 1859.72 966.282 1859.71 C 968.471 1862.81 968.409 1862.79 971.374 1865.13 L 973.631 1865.01 L 974.977 1861.72 C 973.453 1892.16 973.281 1922.68 971.173 1953.11 C 970.839 1957.94 970.862 1963.26 970.195 1967.99 C 966.898 1967.42 963.383 1966.98 960.057 1966.5 C 944.436 1965.32 929.177 1963.54 913.616 1961.76 L 910.884 1961.04 C 917.286 1932.22 918.587 1894.09 924.4 1864.85 L 926.097 1864.42 z"></path>
  <path fill="#893D40" d="M 966.282 1859.71 C 968.471 1862.81 968.409 1862.79 971.374 1865.13 L 973.631 1865.01 L 974.977 1861.72 C 973.453 1892.16 973.281 1922.68 971.173 1953.11 C 970.839 1957.94 970.862 1963.26 970.195 1967.99 C 966.898 1967.42 963.383 1966.98 960.057 1966.5 L 966.282 1859.71 z"></path>
  <path fill="#704040" d="M 924.4 1864.85 L 926.097 1864.42 C 925.281 1886.89 917.14 1937.94 913.616 1961.76 L 910.884 1961.04 C 917.286 1932.22 918.587 1894.09 924.4 1864.85 z"></path>
  <path fill="#AF3E44" d="M 1055.85 1859.56 C 1065.11 1860.38 1087.8 1862.41 1095.36 1865.97 L 1096.46 1868.79 C 1100.34 1899.61 1104.27 1930.38 1109.05 1961.07 C 1109.38 1963.19 1109.21 1964.92 1108.22 1966.82 C 1094.87 1968.46 1077.62 1968.02 1063.7 1968.37 C 1061.37 1968.6 1053.81 1969.29 1051.87 1970.02 C 1050.68 1935.52 1048.81 1899.72 1047.16 1865.12 C 1051.91 1864.6 1053.42 1863.35 1055.85 1859.56 z"></path>
  <path fill="#893D40" d="M 1047.16 1865.12 C 1051.91 1864.6 1053.42 1863.35 1055.85 1859.56 C 1055.84 1869.58 1060.12 1964.17 1062.36 1967.74 L 1063.7 1968.37 C 1061.37 1968.6 1053.81 1969.29 1051.87 1970.02 C 1050.68 1935.52 1048.81 1899.72 1047.16 1865.12 z"></path>
  <path fill="url(#Gradient4)" d="M 1041.24 1587.6 L 1045.17 1586.4 C 1063.27 1580.93 1110.61 1547.51 1118.22 1547.5 L 1119.22 1555.19 L 1120.39 1556.38 C 1130.55 1558.32 1158.21 1550.7 1169.97 1548.87 L 1171.1 1548.7 C 1191.24 1549.35 1212.46 1567.24 1231.39 1575.76 C 1244.15 1581.49 1251 1584.5 1264.57 1588.9 L 1271.08 1612.48 C 1271.39 1620.31 1274.75 1648.76 1276.54 1656.02 C 1287.29 1660.29 1296.94 1664 1307.88 1667.71 C 1313.36 1669.57 1328.96 1674.37 1333.29 1676.61 L 1333.23 1677.74 C 1341.5 1680.38 1343.77 1678.87 1347.65 1686.41 L 1349.43 1686.94 C 1360.97 1711.44 1357.86 1754.62 1363.42 1782.38 C 1363.07 1782.36 1362.72 1782.35 1362.37 1782.33 L 1360.62 1782.22 C 1347.45 1781.43 1331.67 1776.99 1318.35 1774.44 C 1302.61 1771.42 1285.93 1769.66 1270.44 1766.56 C 1262 1764.87 1249.96 1760.35 1240.64 1758.05 C 1238.45 1759.79 1238.77 1761.57 1237.96 1765.08 C 1237.72 1762.61 1239 1754.15 1238.97 1754.11 C 1228.85 1740.33 1208.48 1721.92 1194.96 1711.72 L 1194.69 1711.04 C 1188.75 1706.18 1170.64 1687.54 1164.06 1681.15 C 1158.71 1681.03 1151.03 1681.27 1146.12 1679.8 C 1136.75 1690.54 1129.17 1698.14 1120.35 1709.71 C 1116.86 1714.29 1103.98 1733.6 1101.69 1735.92 C 1088.75 1737.33 1072.15 1743.12 1059.01 1746.08 C 1017.82 1755.35 982.828 1751.22 942.475 1741.06 C 940.063 1739.37 939.837 1739.47 938.317 1737.02 C 943.972 1725.78 1007.14 1698.71 1006.19 1674.32 C 1006.1 1671.88 1006.25 1659.93 1006.13 1659.66 C 1003.51 1660.76 1003.37 1660.95 1000.59 1661.26 L 1000.9 1659.67 C 1002.68 1657.52 1005 1657.45 1007.67 1656.6 C 1017.05 1653.6 1030.26 1634.23 1034.75 1625.32 L 1033.52 1626.63 C 1036.19 1620.49 1039.67 1613.73 1042.53 1607.64 C 1042.16 1605.55 1041.85 1603.77 1041.59 1602.3 C 1041.11 1598.87 1040.89 1592.75 1038.66 1590.63 L 1035.87 1591.03 L 1035.48 1591.02 C 1035.2 1592.31 1042.38 1582.43 1043.35 1580.59 C 1045.71 1577.96 1046.88 1574.06 1048.21 1570.69 C 1051.33 1568.54 1050.03 1569.12 1054.66 1569.55 C 1050.54 1578.52 1048.05 1580.88 1041.24 1587.6 z"></path>
  <path fill="#613536" d="M 1230.08 1631.03 C 1236.11 1635.66 1268.78 1658.83 1273.22 1660.55 C 1276.29 1658.95 1274.95 1660.13 1276.54 1656.02 C 1287.29 1660.29 1296.94 1664 1307.88 1667.71 C 1313.36 1669.57 1328.96 1674.37 1333.29 1676.61 L 1333.23 1677.74 C 1341.5 1680.38 1343.77 1678.87 1347.65 1686.41 L 1349.43 1686.94 C 1360.97 1711.44 1357.86 1754.62 1363.42 1782.38 C 1363.07 1782.36 1362.72 1782.35 1362.37 1782.33 L 1360.62 1782.22 C 1347.45 1781.43 1331.67 1776.99 1318.35 1774.44 C 1302.61 1771.42 1285.93 1769.66 1270.44 1766.56 C 1262 1764.87 1249.96 1760.35 1240.64 1758.05 C 1238.45 1759.79 1238.77 1761.57 1237.96 1765.08 C 1237.72 1762.61 1239 1754.15 1238.97 1754.11 C 1228.85 1740.33 1208.48 1721.92 1194.96 1711.72 L 1194.69 1711.04 C 1205.61 1691.76 1219.6 1669.97 1227.73 1649 C 1228.49 1647.04 1229.81 1633.69 1230.08 1631.03 z"></path>
  <path fill="#893D40" d="M 1171.1 1548.7 C 1191.24 1549.35 1212.46 1567.24 1231.39 1575.76 C 1244.15 1581.49 1251 1584.5 1264.57 1588.9 L 1271.08 1612.48 C 1271.39 1620.31 1274.75 1648.76 1276.54 1656.02 C 1274.95 1660.13 1276.29 1658.95 1273.22 1660.55 C 1268.78 1658.83 1236.11 1635.66 1230.08 1631.03 C 1229.81 1633.69 1228.49 1647.04 1227.73 1649 C 1219.6 1669.97 1205.61 1691.76 1194.69 1711.04 C 1188.75 1706.18 1170.64 1687.54 1164.06 1681.15 C 1158.71 1681.03 1151.03 1681.27 1146.12 1679.8 C 1160.65 1662.95 1174.74 1656.39 1176.17 1633.21 L 1179.07 1628.25 C 1179.18 1622.72 1180.44 1616.27 1181.32 1610.73 C 1180.69 1601.77 1179.11 1592.9 1176.61 1584.28 C 1174.11 1582.16 1172.76 1580.25 1170.74 1577.72 C 1169.85 1576.19 1166.77 1562.63 1165.53 1558.72 L 1164.6 1554.89 L 1164.65 1553.94 C 1168.52 1551.96 1168.32 1552.07 1171.1 1548.7 z"></path>
  <path fill="#AF3E44" d="M 1184 1560.8 C 1197.89 1566.35 1220.06 1569.71 1224.1 1582.88 C 1229.34 1599.94 1230.98 1613.51 1230.25 1630.94 C 1220.25 1624.38 1205.37 1613.2 1196.02 1607.84 L 1181.32 1610.73 C 1180.69 1601.77 1179.11 1592.9 1176.61 1584.28 C 1175.47 1578.82 1174.2 1575.75 1172.23 1570.63 C 1176.63 1566.44 1179.2 1564.42 1184 1560.8 z"></path>
  <path fill="#704040" d="M 1119.22 1555.19 L 1120.39 1556.38 C 1130.55 1558.32 1158.21 1550.7 1169.97 1548.87 L 1171.1 1548.7 C 1168.32 1552.07 1168.52 1551.96 1164.65 1553.94 L 1164.6 1554.89 L 1165.53 1558.72 C 1166.77 1562.63 1169.85 1576.19 1170.74 1577.72 C 1172.76 1580.25 1174.11 1582.16 1176.61 1584.28 C 1179.11 1592.9 1180.69 1601.77 1181.32 1610.73 C 1180.44 1616.27 1179.18 1622.72 1179.07 1628.25 C 1177.76 1621.01 1173.7 1618.92 1172.31 1609.39 C 1168.2 1596.44 1158.49 1598.79 1146.88 1598.95 C 1141.7 1599.53 1137.4 1599.8 1132.85 1602.55 C 1132.5 1601.28 1127.47 1594.76 1126.34 1593.2 C 1121.6 1586.14 1120.67 1570.49 1119.73 1561.49 L 1119.22 1555.19 z"></path>
  <path fill="#613536" d="M 1146.88 1598.95 C 1150.59 1598.02 1152.19 1597.78 1156.01 1597.36 C 1158.95 1588.52 1154.61 1561.67 1162.33 1557.5 L 1165.53 1558.72 C 1166.77 1562.63 1169.85 1576.19 1170.74 1577.72 C 1172.76 1580.25 1174.11 1582.16 1176.61 1584.28 C 1179.11 1592.9 1180.69 1601.77 1181.32 1610.73 C 1180.44 1616.27 1179.18 1622.72 1179.07 1628.25 C 1177.76 1621.01 1173.7 1618.92 1172.31 1609.39 C 1168.2 1596.44 1158.49 1598.79 1146.88 1598.95 z"></path>
  <path fill="#704040" d="M 1170.74 1577.72 C 1172.76 1580.25 1174.11 1582.16 1176.61 1584.28 C 1179.11 1592.9 1180.69 1601.77 1181.32 1610.73 C 1180.44 1616.27 1179.18 1622.72 1179.07 1628.25 C 1177.76 1621.01 1173.7 1618.92 1172.31 1609.39 C 1170.95 1598.27 1170.72 1588.89 1170.74 1577.72 z"></path>
  <path fill="#5A2F30" d="M 1119.73 1561.49 C 1124.75 1560.26 1127.01 1559.95 1132.18 1559.47 C 1131.44 1567.99 1130.82 1586.9 1126.34 1593.2 C 1121.6 1586.14 1120.67 1570.49 1119.73 1561.49 z"></path>
  <path fill="#893D40" d="M 1119.22 1555.19 L 1120.39 1556.38 C 1130.55 1558.32 1158.21 1550.7 1169.97 1548.87 L 1171.1 1548.7 C 1168.32 1552.07 1168.52 1551.96 1164.65 1553.94 L 1164.6 1554.89 C 1158.26 1557.73 1139.75 1558.93 1132.18 1559.47 C 1127.01 1559.95 1124.75 1560.26 1119.73 1561.49 L 1119.22 1555.19 z"></path>
  <path fill="#3F3434" d="M1146.88 1598.95C1158.49 1598.79 1168.2 1596.44 1172.31 1609.39 1173.7 1618.92 1177.76 1621.01 1179.07 1628.25L1176.17 1633.21C1166.17 1608.47 1140.66 1613.42 1132.85 1602.55 1137.4 1599.8 1141.7 1599.53 1146.88 1598.95zM1237.96 1765.08C1238.77 1761.57 1238.45 1759.79 1240.64 1758.05 1249.96 1760.35 1262 1764.87 1270.44 1766.56 1285.93 1769.66 1302.61 1771.42 1318.35 1774.44 1331.67 1776.99 1347.45 1781.43 1360.62 1782.22L1362.37 1782.33C1362.72 1782.35 1363.07 1782.36 1363.42 1782.38 1368.76 1818.72 1368.8 1844.79 1368.1 1881.29L1367.64 1881.97C1367.03 1889.05 1365.58 1903.28 1366.61 1909.64L1367.75 1910.7C1342.91 1920 1318.22 1926.71 1292.84 1934.33 1266.3 1942.31 1237.84 1950.47 1210.33 1954.12 1201.14 1954.3 1195.7 1950.87 1183.27 1950.8 1184.95 1949.73 1192.74 1949.33 1195.29 1949.07 1203.55 1947.95 1212.62 1947.25 1220.98 1946.44 1220.66 1926.44 1221 1905.38 1220.85 1885.18 1221.03 1873.3 1220.9 1841.7 1222.53 1830.72L1226.25 1829.23 1227.11 1826.05C1231.59 1804.7 1235.78 1786.79 1237.96 1765.08z"></path>
  <path fill="#613536" d="M 1220.85 1885.18 C 1254.39 1892.29 1334.54 1890.21 1367.64 1881.97 C 1367.03 1889.05 1365.58 1903.28 1366.61 1909.64 L 1367.75 1910.7 C 1342.91 1920 1318.22 1926.71 1292.84 1934.33 C 1266.3 1942.31 1237.84 1950.47 1210.33 1954.12 C 1201.14 1954.3 1195.7 1950.87 1183.27 1950.8 C 1184.95 1949.73 1192.74 1949.33 1195.29 1949.07 C 1203.55 1947.95 1212.62 1947.25 1220.98 1946.44 C 1220.66 1926.44 1221 1905.38 1220.85 1885.18 z"></path>
  <path fill="#AF3E44" d="M 1098.89 1866.13 C 1104.56 1863.71 1207.04 1881.33 1220.85 1885.18 C 1221 1905.38 1220.66 1926.44 1220.98 1946.44 C 1212.62 1947.25 1203.55 1947.95 1195.29 1949.07 C 1192.74 1949.33 1184.95 1949.73 1183.27 1950.8 C 1195.7 1950.87 1201.14 1954.3 1210.33 1954.12 C 1185.41 1959.96 1167.81 1958.82 1147.02 1962.88 C 1135.37 1963.81 1124.67 1965.75 1112.94 1965.94 L 1108.22 1966.82 C 1109.21 1964.92 1109.38 1963.19 1109.05 1961.07 C 1104.27 1930.38 1100.34 1899.61 1096.46 1868.79 L 1098.89 1866.13 z"></path>
  <path fill="#3F3434" d="M 1145.51 1951.82 C 1150.08 1948.16 1172.96 1952.61 1183.27 1950.8 C 1195.7 1950.87 1201.14 1954.3 1210.33 1954.12 C 1185.41 1959.96 1167.81 1958.82 1147.02 1962.88 L 1148.29 1961.76 C 1148.62 1958.9 1146.63 1954.74 1145.51 1951.82 z"></path>
  <path fill="#5A2F30" d="M 1098.89 1866.13 C 1103.16 1900.7 1107.16 1931.63 1112.94 1965.94 L 1108.22 1966.82 C 1109.21 1964.92 1109.38 1963.19 1109.05 1961.07 C 1104.27 1930.38 1100.34 1899.61 1096.46 1868.79 L 1098.89 1866.13 z"></path>
  <path fill="#893D40" d="M 1145.51 1951.82 C 1143.73 1949.48 1142.96 1948.07 1143.25 1945.54 C 1147.81 1943.9 1184.25 1949.1 1193.7 1949.08 L 1195.29 1949.07 C 1192.74 1949.33 1184.95 1949.73 1183.27 1950.8 C 1172.96 1952.61 1150.08 1948.16 1145.51 1951.82 z"></path>
  <path fill="#AF3E44" d="M 1146.12 1679.8 C 1151.03 1681.27 1158.71 1681.03 1164.06 1681.15 C 1170.64 1687.54 1188.75 1706.18 1194.69 1711.04 L 1194.96 1711.72 C 1193.84 1719.32 1193.48 1722.93 1193.39 1730.59 C 1189.13 1735.69 1184.53 1742.97 1182.22 1749.29 C 1180.34 1754.43 1179.96 1761.95 1177.9 1766.74 L 1137.73 1719.33 C 1123.52 1735.42 1109.46 1751.64 1095.55 1767.97 C 1093.3 1763.52 1091.53 1758.11 1089.8 1753.38 C 1093.96 1749 1098.69 1741.19 1101.69 1735.92 C 1103.98 1733.6 1116.86 1714.29 1120.35 1709.71 C 1129.17 1698.14 1136.75 1690.54 1146.12 1679.8 z"></path>
  <path fill="#893D40" d="M 1194.96 1711.72 C 1208.48 1721.92 1228.85 1740.33 1238.97 1754.11 C 1239 1754.15 1237.72 1762.61 1237.96 1765.08 C 1235.78 1786.79 1231.59 1804.7 1227.11 1826.05 C 1212.36 1806.36 1192.16 1786.21 1177.9 1766.74 C 1179.96 1761.95 1180.34 1754.43 1182.22 1749.29 C 1184.53 1742.97 1189.13 1735.69 1193.39 1730.59 C 1193.48 1722.93 1193.84 1719.32 1194.96 1711.72 z"></path>
  <path fill="#3F3434" d="M 1090.05 1792.58 C 1090.22 1792.71 1090.41 1792.83 1090.58 1792.98 C 1095.44 1797.23 1097.63 1856.58 1098.24 1865.72 L 1096.34 1864.71 C 1094.81 1862.25 1090.79 1801.27 1090.05 1792.58 z"></path>
  <path fill="#5A2F30" d="M 1074.04 1831.65 C 1076.05 1831.86 1077.92 1832.12 1079.58 1833.47 C 1081.6 1835.13 1082.89 1837.52 1083.17 1840.12 C 1084.34 1851.76 1072.42 1855.45 1062.81 1844.92 L 1063.5 1842.61 C 1068.05 1846.91 1073.07 1853.4 1079.47 1847.91 C 1082.43 1839.9 1080.25 1836.54 1074.04 1831.65 z"></path>
  <path fill="url(#Gradient3)" d="M 813.168 1525.62 C 823.79 1518.97 829.332 1513.2 836.398 1503.02 C 842.701 1493.93 847.104 1496.06 856.203 1492.42 C 862.5 1496.56 866.044 1499.04 871.48 1504.38 C 872.895 1510.48 873.947 1515.88 875.036 1522.04 C 867.747 1537.04 863.861 1546.99 851.29 1558.4 C 886.309 1554.68 940.059 1529.96 973.673 1516.66 C 987.159 1511.32 1001.83 1502.99 1016.97 1500.58 C 1022.45 1499.71 1030.96 1503.02 1036.58 1503.48 C 1043.53 1509.03 1056.78 1519.34 1046.39 1527.68 C 1037.34 1534.95 1021.13 1542.59 1010.84 1548.44 L 1011.98 1550 C 1022.62 1543.7 1029.44 1544.02 1041.08 1547.33 C 1047.39 1548.02 1056.73 1554.74 1056.01 1561.54 L 1054.66 1569.55 C 1050.03 1569.12 1051.33 1568.54 1048.21 1570.69 C 1046.88 1574.06 1045.71 1577.96 1043.35 1580.59 C 1042.38 1582.43 1035.2 1592.31 1035.48 1591.02 L 1035.87 1591.03 L 1038.66 1590.63 C 1040.89 1592.75 1041.11 1598.87 1041.59 1602.3 C 1041.85 1603.77 1042.16 1605.55 1042.53 1607.64 C 1039.67 1613.73 1036.19 1620.49 1033.52 1626.63 L 1034.75 1625.32 C 1030.26 1634.23 1017.05 1653.6 1007.67 1656.6 C 1005 1657.45 1002.68 1657.52 1000.9 1659.67 L 1000.59 1661.26 C 1003.37 1660.95 1003.51 1660.76 1006.13 1659.66 C 1006.25 1659.93 1006.1 1671.88 1006.19 1674.32 C 1007.14 1698.71 943.972 1725.78 938.317 1737.02 C 939.837 1739.47 940.063 1739.37 942.475 1741.06 C 933.314 1738.18 933.146 1736.88 924.676 1742.15 C 919.76 1744.23 914.821 1746.25 909.862 1748.23 C 889.973 1757.86 864.317 1764.1 842.789 1768.66 C 819.75 1773.04 806.042 1773.26 783.823 1767.98 C 771.556 1765.72 759.179 1764.86 747.878 1762.64 C 738.848 1744.2 713.249 1692.77 716.062 1675.51 C 714.875 1665.93 717.765 1648.07 714.808 1642.71 C 710.615 1639.75 708.692 1638.97 707.96 1633.74 L 723.627 1625.81 C 725.252 1621.18 732.3 1610.37 734.977 1605.46 C 755.914 1567.13 780.013 1551.62 813.168 1525.62 z"></path>
  <path d="M 1010.84 1548.44 L 1011.98 1550 C 994.092 1562.55 944.507 1588.36 922.986 1591.06 C 938.98 1582.7 954.27 1578.34 969.438 1570.95 C 982.961 1564.36 996.349 1555.59 1010.84 1548.44 z"></path>
  <path fill="#F9C492" d="M 1041.08 1547.33 C 1047.39 1548.02 1056.73 1554.74 1056.01 1561.54 L 1054.66 1569.55 C 1050.03 1569.12 1051.33 1568.54 1048.21 1570.69 C 1046.88 1574.06 1045.71 1577.96 1043.35 1580.59 C 1043.23 1578.91 1043.04 1578.86 1043.55 1577.47 C 1046.38 1569.69 1044.5 1566.14 1041.64 1558.79 L 1039.95 1558.84 C 1037.87 1554.01 1039.18 1552.47 1041.08 1547.33 z"></path>
  <path fill="#F1B084" d="M 1041.64 1558.79 C 1041.24 1554.61 1040.52 1554.34 1042.02 1551.12 C 1045.54 1556.97 1045.32 1562.56 1051.46 1565.7 C 1054.37 1564.56 1053.8 1564.37 1056.01 1561.54 L 1054.66 1569.55 C 1050.03 1569.12 1051.33 1568.54 1048.21 1570.69 C 1046.88 1574.06 1045.71 1577.96 1043.35 1580.59 C 1043.23 1578.91 1043.04 1578.86 1043.55 1577.47 C 1046.38 1569.69 1044.5 1566.14 1041.64 1558.79 z"></path>
  <path fill="#613536" d="M 707.96 1633.74 L 723.627 1625.81 L 723.308 1626.79 C 722.152 1630.27 721.649 1631.48 720.037 1634.73 C 714.109 1646.71 718.107 1661.76 716.062 1675.51 C 714.875 1665.93 717.765 1648.07 714.808 1642.71 C 710.615 1639.75 708.692 1638.97 707.96 1633.74 z"></path>
  <path fill="#F9C492" d="M 1035.87 1591.03 L 1038.66 1590.63 C 1040.89 1592.75 1041.11 1598.87 1041.59 1602.3 C 1040.95 1604.97 1041.43 1604.09 1039.69 1606.18 C 1037.13 1603.49 1036.5 1595.29 1035.87 1591.03 z"></path>
  <path fill="#F1B084" d="M 936.417 1642.44 C 939.527 1642.4 939.771 1642.05 942.319 1643.63 C 942.171 1646.52 940.935 1646.85 938.486 1649.65 L 935.622 1651.15 L 934.313 1649.82 C 934.545 1645.81 934.535 1646.02 936.417 1642.44 z"></path>
  <path fill="#DF986B" d="M 1445.38 1113.18 L 1448.81 1114.62 C 1453.78 1123.44 1454.88 1133.05 1452.66 1142.92 C 1442.47 1188.17 1433.12 1240.95 1400.51 1276.11 C 1382.98 1295.32 1364.11 1307.86 1349.09 1328.45 C 1340.21 1340.72 1328.25 1350.55 1312.56 1351.04 L 1311.38 1351.09 C 1311.89 1347.17 1320.82 1333.09 1323.31 1329.06 C 1343.34 1296.65 1360.97 1260.99 1371.15 1224.19 C 1373.06 1217.29 1374.31 1211.45 1377 1204.63 L 1377.61 1203.1 C 1384.88 1191.32 1391.42 1188.36 1396.26 1172.88 C 1405.31 1149.98 1407.95 1141.14 1424.47 1122.86 C 1426.25 1120.77 1427.05 1120.25 1429.17 1118.54 C 1435.33 1117.6 1439.63 1115.54 1445.38 1113.18 z"></path>
  <path fill="#494849" d="M 1396.26 1172.88 C 1405.31 1149.98 1407.95 1141.14 1424.47 1122.86 C 1420.6 1133.68 1411.69 1163 1402.86 1171.81 C 1402.3 1172.37 1397.5 1172.77 1396.26 1172.88 z"></path>
  <path fill="#DF986B" d="M 672.253 1165.89 C 670.277 1157.84 669.502 1149.09 666.833 1140.93 C 662.73 1128.38 656.186 1113.88 652.831 1101.41 C 650.506 1092.76 644.047 1068.16 644.26 1059.83 C 645.1 1026.96 652.682 990.624 661.85 958.977 C 665.377 946.803 671.162 928.843 682.512 922.817 L 689.099 924.135 C 691.012 928.415 698.147 935.806 701.699 939.131 C 704.057 943.783 704.154 944.71 705.326 949.909 C 706.975 964.52 707.941 986.011 703.465 1000.28 C 702.907 1013.25 702.715 1016.56 705.656 1029.16 C 694.19 1067.66 689.039 1120.12 692.189 1160.17 L 691.194 1162.97 C 686.405 1161.23 678.344 1163.67 674.973 1167.29 L 672.253 1165.89 z"></path>
  <path fill="#494849" d="M 701.699 939.131 C 704.057 943.783 704.154 944.71 705.326 949.909 C 706.975 964.52 707.941 986.011 703.465 1000.28 C 697.445 988.931 699.245 952.595 701.699 939.131 z"></path>
  <path d="M 674.973 1167.29 C 678.344 1163.67 686.405 1161.23 691.194 1162.97 L 687.744 1166.66 L 683.438 1173.91 C 681.283 1176.2 678.826 1178.53 677.17 1181.12 C 682.028 1187.75 685.786 1191.36 691.636 1197.22 C 695.527 1212.3 694.831 1229.29 695.205 1245.09 C 685.135 1245.39 682.472 1245.62 673.286 1241.28 C 670.732 1247.05 669.464 1247.22 663.416 1249.53 L 662.408 1249.9 C 649.677 1236.33 647.829 1227.53 648.761 1209.66 C 649.963 1187.89 657.943 1180.27 672.253 1165.89 L 674.973 1167.29 z"></path>
  <path fill="#DAA326" d="M 674.973 1167.29 C 678.344 1163.67 686.405 1161.23 691.194 1162.97 L 687.744 1166.66 L 683.438 1173.91 C 681.283 1176.2 678.826 1178.53 677.17 1181.12 L 674.318 1181.45 C 659.426 1200.02 654.323 1223.27 673.286 1241.28 C 670.732 1247.05 669.464 1247.22 663.416 1249.53 L 662.408 1249.9 C 649.677 1236.33 647.829 1227.53 648.761 1209.66 C 649.963 1187.89 657.943 1180.27 672.253 1165.89 L 674.973 1167.29 z"></path>
  <path fill="#ECBF6A" d="M 674.973 1167.29 C 678.344 1163.67 686.405 1161.23 691.194 1162.97 L 687.744 1166.66 L 683.438 1173.91 C 681.283 1176.2 678.826 1178.53 677.17 1181.12 L 674.318 1181.45 C 673.116 1178.53 674.033 1179.79 671.102 1177.85 L 671.433 1175.29 L 668.895 1174.34 C 672.326 1171.36 672.536 1171.15 674.973 1167.29 z"></path>
  <path fill="#FFD424" d="M 674.973 1167.29 C 678.344 1163.67 686.405 1161.23 691.194 1162.97 L 687.744 1166.66 C 679.642 1168.8 678.11 1170.27 671.433 1175.29 L 668.895 1174.34 C 672.326 1171.36 672.536 1171.15 674.973 1167.29 z"></path>
  <path fill="#ECBF6A" d="M 672.253 1165.89 L 674.973 1167.29 C 672.536 1171.15 672.326 1171.36 668.895 1174.34 C 653.859 1187.07 654.6 1204.1 648.761 1209.66 C 649.963 1187.89 657.943 1180.27 672.253 1165.89 z"></path>
  <path fill="#494849" d="M 1249.64 1385.84 L 1251.28 1387.22 C 1256.86 1385.38 1273.36 1365.93 1279.74 1360.33 L 1283.38 1361.6 C 1295.46 1358.53 1327.37 1295.19 1337.44 1281.89 C 1338.3 1291.11 1295.22 1353.26 1287.92 1363.68 C 1286.68 1365.46 1290.17 1369.61 1284.37 1373.77 L 1281.16 1372.18 C 1275.35 1376.75 1270.43 1381.59 1264.51 1386.06 C 1257.67 1391.23 1250.01 1395.35 1243.37 1400.61 C 1246.93 1394.01 1247.37 1392.72 1249.64 1385.84 z"></path>
  <path fill="#F1B084" d="M 683.438 1173.91 C 686.66 1173.61 689.923 1173.19 693.141 1173.23 C 693.488 1178.96 695.543 1193.64 691.636 1197.22 C 685.786 1191.36 682.028 1187.75 677.17 1181.12 C 678.826 1178.53 681.283 1176.2 683.438 1173.91 z"></path>
  <path fill="#9A7C42" d="M 692.189 1160.17 C 692.616 1164.56 693.138 1168.82 693.141 1173.23 C 689.923 1173.19 686.66 1173.61 683.438 1173.91 L 687.744 1166.66 L 691.194 1162.97 L 692.189 1160.17 z"></path>
  <path fill="url(#Gradient2)" d="M 930.585 1311.45 C 959.017 1310.07 966.589 1317.11 991.059 1323.58 C 1008.42 1328.18 1020.86 1325.29 1040.48 1336.16 C 1082.46 1359.41 1105.72 1397.96 1120.75 1441.23 C 1118.73 1453.27 1116.59 1459.63 1110.87 1470.23 C 1070.41 1491.11 1047.51 1500.39 1005.35 1475.15 C 995.011 1463.31 997.584 1463.84 991.384 1449.42 C 991.369 1448.52 989.509 1447.73 988.642 1447.58 C 968.459 1444.2 951.039 1439.18 931.764 1432.46 C 928.968 1436.01 925.238 1440.84 921.726 1443.45 C 893.834 1464.2 850.198 1442.97 831.674 1418.38 C 826.287 1411.23 821.621 1403.71 816.074 1396.54 C 816.143 1384.74 817.047 1372.48 825.252 1363.52 C 849.513 1337.05 894.953 1314.51 930.585 1311.45 z"></path>
  <path fill="url(#Gradient1)" d="M 880.581 1359.88 L 876.772 1357.15 L 876.868 1355.74 C 889.448 1345.49 934.57 1335.1 951.345 1337.28 C 965.044 1339.07 973.946 1345.74 985.455 1351.88 C 1013.61 1349.55 1024.81 1353.45 1047.41 1371.4 C 1053.99 1376.63 1075.79 1399.31 1077.41 1406.88 C 1074.95 1408.17 1074.88 1407.55 1071.47 1407.04 C 1030.96 1427.36 982.969 1427.22 941.687 1408.7 C 913.783 1396.19 899.81 1382.85 880.581 1359.88 z"></path>
  <path fill="#DF986B" d="M 880.581 1359.88 L 876.772 1357.15 L 876.868 1355.74 C 889.448 1345.49 934.57 1335.1 951.345 1337.28 C 965.044 1339.07 973.946 1345.74 985.455 1351.88 C 1013.61 1349.55 1024.81 1353.45 1047.41 1371.4 C 1053.99 1376.63 1075.79 1399.31 1077.41 1406.88 C 1074.95 1408.17 1074.88 1407.55 1071.47 1407.04 C 1057.47 1396.47 1022.39 1385.36 1004.89 1381.51 C 996.833 1379.74 984.648 1381.72 976.003 1378.86 C 967.461 1376.03 960.599 1371.44 952.316 1368.12 C 939.92 1363.77 892.155 1357.27 880.581 1359.88 z"></path>
  <path fill="#F1B084" d="M945.999 1378.8C950.429 1380.76 978.771 1397.26 980.192 1401 979.712 1401.28 979.231 1401.57 978.751 1401.85L976.77 1401.11C967.205 1401.38 939.379 1398.23 939.588 1385.15 941.477 1381.42 942.352 1381.21 945.999 1378.8zM989.088 1396.01C995.467 1395.92 1004.74 1395.01 1007.68 1401.84 1006.58 1405.36 1006.64 1405.1 1003.71 1407.39 997.047 1408.27 990.957 1409.15 986.952 1403.02 986.572 1399.64 987.353 1398.94 989.088 1396.01z"></path>
  <path fill="#3F3434" d="M 700.103 1635.36 C 703.5 1631.77 701.343 1631.01 704.492 1629.97 L 707.96 1633.74 C 708.692 1638.97 710.615 1639.75 714.808 1642.71 C 717.765 1648.07 714.875 1665.93 716.062 1675.51 C 713.249 1692.77 738.848 1744.2 747.878 1762.64 C 759.179 1764.86 771.556 1765.72 783.823 1767.98 C 786.379 1777.47 792.642 1814.54 794.323 1825.36 C 795.361 1830.07 794.764 1829.23 799.338 1831.68 C 801.5 1846.67 801.401 1871.83 801.044 1887.85 C 800.911 1905.81 801.079 1923.77 801.549 1941.73 C 786.711 1937.56 771.117 1931.71 756.333 1928.1 C 725.169 1920.49 697.976 1909.44 668.408 1896.86 C 660.416 1892.88 656.224 1891.5 647.73 1889.05 C 643.321 1887.34 633.208 1881.94 628.54 1879.63 C 619.848 1875.54 614.22 1872.76 606.054 1867.81 C 602.837 1866.69 595.803 1862.23 592.018 1860.47 C 573.667 1851.94 558.254 1842.82 541.045 1832.24 C 511.735 1811.58 480.54 1794.44 452.568 1771.05 C 448.791 1768.29 440.232 1762.14 437.905 1758.49 C 448.277 1755.27 456.807 1747.99 465.971 1741.62 C 484.355 1721.56 564.902 1680.51 590.942 1672.31 C 604.887 1667.49 616.345 1663.78 630.19 1658.23 C 632.36 1657.11 638.361 1654.93 640.9 1653.92 C 656.538 1646.5 681.713 1643.82 700.103 1635.36 z"></path>
  <path fill="#3F3434" d="M 465.971 1741.62 C 484.355 1721.56 564.902 1680.51 590.942 1672.31 C 602.34 1686.39 606.13 1700.05 614.378 1710.92 C 605.612 1714.4 597.323 1717.63 587.893 1718.81 C 588.502 1723.06 590.127 1735.45 591.623 1739.11 C 593.806 1756.86 597.3 1772.61 606.364 1788.03 C 608.232 1791.21 612.49 1797.8 611.396 1800.74 L 608.416 1802.23 L 605.583 1802.31 C 590.326 1806.16 587.053 1812.8 574.658 1817.01 C 574.164 1812.74 574.993 1814.5 572.409 1811.4 C 572.676 1813.35 573.512 1815.92 572.424 1816.96 C 565.584 1823.54 547.588 1825.47 541.045 1832.24 C 511.735 1811.58 480.54 1794.44 452.568 1771.05 C 448.791 1768.29 440.232 1762.14 437.905 1758.49 C 448.277 1755.27 456.807 1747.99 465.971 1741.62 z"></path>
  <path fill="#613536" d="M 584.821 1719.46 L 587.893 1718.81 C 588.502 1723.06 590.127 1735.45 591.623 1739.11 C 593.806 1756.86 597.3 1772.61 606.364 1788.03 C 608.232 1791.21 612.49 1797.8 611.396 1800.74 L 608.416 1802.23 L 605.583 1802.31 C 590.326 1806.16 587.053 1812.8 574.658 1817.01 C 574.164 1812.74 574.993 1814.5 572.409 1811.4 C 556.758 1791.03 552.361 1751.08 547.23 1724.96 C 559.094 1720.79 572.254 1720.43 584.821 1719.46 z"></path>
  <path fill="#3F3434" d="M 584.821 1719.46 L 587.893 1718.81 C 588.502 1723.06 590.127 1735.45 591.623 1739.11 C 593.806 1756.86 597.3 1772.61 606.364 1788.03 C 608.232 1791.21 612.49 1797.8 611.396 1800.74 L 608.416 1802.23 L 605.583 1802.31 C 603.868 1793.47 596.648 1783.64 594.704 1775.82 C 590.656 1759.54 586.502 1735.99 584.821 1719.46 z"></path>
  <path fill="#704040" d="M 465.971 1741.62 C 474.923 1740.44 509.909 1717.48 518.889 1711.41 C 525.757 1716.97 533.827 1722.62 540.23 1728.26 C 523.802 1737.11 509.671 1742.99 492.901 1750.76 C 479.796 1756.84 465.477 1764.41 452.568 1771.05 C 448.791 1768.29 440.232 1762.14 437.905 1758.49 C 448.277 1755.27 456.807 1747.99 465.971 1741.62 z"></path>
  <path fill="#613536" d="M 700.103 1635.36 C 702.697 1638.21 704.978 1654.03 705.798 1658.71 C 704.524 1656.65 704.315 1656.02 703.328 1653.78 L 702.068 1654.33 C 702.166 1656.18 707.942 1678.67 708.765 1681.01 C 702.241 1686.76 693.117 1695.72 684.845 1698.38 C 682.882 1699.01 677.686 1698.72 674.761 1699.21 C 672.195 1712.1 690.325 1750.19 696.458 1762.98 C 698.954 1768.18 706.181 1780.73 707.444 1785.18 C 680.624 1782.88 661.534 1784.53 635.391 1793.19 C 630.424 1794.84 615.902 1798.72 613.054 1801.83 L 609.207 1803.21 L 608.416 1802.23 L 611.396 1800.74 C 612.49 1797.8 608.232 1791.21 606.364 1788.03 C 597.3 1772.61 593.806 1756.86 591.623 1739.11 C 590.127 1735.45 588.502 1723.06 587.893 1718.81 C 597.323 1717.63 605.612 1714.4 614.378 1710.92 C 606.13 1700.05 602.34 1686.39 590.942 1672.31 C 604.887 1667.49 616.345 1663.78 630.19 1658.23 C 632.36 1657.11 638.361 1654.93 640.9 1653.92 C 656.538 1646.5 681.713 1643.82 700.103 1635.36 z"></path>
  <path fill="#704040" d="M 700.103 1635.36 C 702.697 1638.21 704.978 1654.03 705.798 1658.71 C 704.524 1656.65 704.315 1656.02 703.328 1653.78 L 702.068 1654.33 C 702.166 1656.18 707.942 1678.67 708.765 1681.01 C 702.241 1686.76 693.117 1695.72 684.845 1698.38 C 682.882 1699.01 677.686 1698.72 674.761 1699.21 C 665.058 1699.43 647.593 1698.83 641.064 1704.52 C 630.802 1713.47 598.75 1713.27 590.6 1721.72 C 590.011 1727.32 593.681 1736.48 591.623 1739.11 C 590.127 1735.45 588.502 1723.06 587.893 1718.81 C 597.323 1717.63 605.612 1714.4 614.378 1710.92 C 606.13 1700.05 602.34 1686.39 590.942 1672.31 C 604.887 1667.49 616.345 1663.78 630.19 1658.23 C 632.36 1657.11 638.361 1654.93 640.9 1653.92 C 656.538 1646.5 681.713 1643.82 700.103 1635.36 z"></path>
  <path fill="#613536" d="M 630.19 1658.23 C 632.36 1657.11 638.361 1654.93 640.9 1653.92 C 648.327 1669.33 653.176 1671.41 652.067 1689.79 L 649.991 1693.54 C 647.48 1695.22 644.579 1697.27 642.031 1698.8 C 638.895 1694.26 642.256 1669.83 630.19 1658.23 z"></path>
  <path fill="#AF3E44" d="M 652.067 1689.79 C 659.48 1687.25 665.63 1681.83 671.859 1676.99 L 678.515 1698.08 C 669.647 1698.13 659.341 1698.44 650.628 1697.65 L 649.991 1693.54 L 652.067 1689.79 z"></path>
  <path fill="#AF3E44" d="M 642.031 1698.8 C 644.579 1697.27 647.48 1695.22 649.991 1693.54 L 650.628 1697.65 C 649.131 1697.9 648.915 1697.93 647.583 1698.73 C 636.69 1705.34 631.032 1707.97 618.617 1709.88 C 623.934 1707.68 638.185 1702.19 642.031 1698.8 z"></path>
  <path fill="#3F3434" d="M 658.565 1720.58 C 662.54 1723.01 667.347 1739.72 666.908 1744.53 C 662.99 1740.1 657.643 1726.52 658.565 1720.58 z"></path>
  <path fill="#AF3E44" d="M 613.054 1801.83 C 615.902 1798.72 630.424 1794.84 635.391 1793.19 C 661.534 1784.53 680.624 1782.88 707.444 1785.18 L 709.212 1785.78 C 712.273 1790.97 718.168 1802.96 723.535 1804.06 C 729.028 1805.19 730.977 1804.81 735.716 1808.55 C 712.744 1837.27 701.321 1834.91 672.093 1851.7 C 671.655 1861.17 671.513 1870.74 668.722 1879.85 L 669.183 1881.24 C 668.973 1886.25 668.88 1891.93 668.408 1896.86 C 660.416 1892.88 656.224 1891.5 647.73 1889.05 C 643.321 1887.34 633.208 1881.94 628.54 1879.63 C 619.848 1875.54 614.22 1872.76 606.054 1867.81 C 602.837 1866.69 595.803 1862.23 592.018 1860.47 C 573.667 1851.94 558.254 1842.82 541.045 1832.24 C 547.588 1825.47 565.584 1823.54 572.424 1816.96 C 573.512 1815.92 572.676 1813.35 572.409 1811.4 C 574.993 1814.5 574.164 1812.74 574.658 1817.01 C 587.053 1812.8 590.326 1806.16 605.583 1802.31 L 608.416 1802.23 L 609.207 1803.21 L 613.054 1801.83 z"></path>
  <path fill="#AF3E44" d="M 613.054 1801.83 C 624.554 1820.35 629.033 1833.34 646.938 1848.57 C 650.081 1851.25 654.707 1856.42 657.995 1858.74 C 662.681 1856.37 667.38 1854.02 672.093 1851.7 C 671.655 1861.17 671.513 1870.74 668.722 1879.85 L 669.183 1881.24 C 668.973 1886.25 668.88 1891.93 668.408 1896.86 C 660.416 1892.88 656.224 1891.5 647.73 1889.05 C 643.321 1887.34 633.208 1881.94 628.54 1879.63 C 619.848 1875.54 614.22 1872.76 606.054 1867.81 C 602.837 1866.69 595.803 1862.23 592.018 1860.47 C 573.667 1851.94 558.254 1842.82 541.045 1832.24 C 547.588 1825.47 565.584 1823.54 572.424 1816.96 C 573.512 1815.92 572.676 1813.35 572.409 1811.4 C 574.993 1814.5 574.164 1812.74 574.658 1817.01 C 587.053 1812.8 590.326 1806.16 605.583 1802.31 L 608.416 1802.23 L 609.207 1803.21 L 613.054 1801.83 z"></path>
  <path fill="#5A2F30" d="M572.409 1811.4C574.993 1814.5 574.164 1812.74 574.658 1817.01 577.736 1826.73 584.837 1838.11 590.137 1846.83 594.176 1853.48 604.702 1862.96 606.054 1867.81 602.837 1866.69 595.803 1862.23 592.018 1860.47 573.667 1851.94 558.254 1842.82 541.045 1832.24 547.588 1825.47 565.584 1823.54 572.424 1816.96 573.512 1815.92 572.676 1813.35 572.409 1811.4zM657.995 1858.74C662.681 1856.37 667.38 1854.02 672.093 1851.7 671.655 1861.17 671.513 1870.74 668.722 1879.85L669.183 1881.24C668.973 1886.25 668.88 1891.93 668.408 1896.86 660.416 1892.88 656.224 1891.5 647.73 1889.05 643.321 1887.34 633.208 1881.94 628.54 1879.63 634.949 1874.49 646.165 1867.07 653.433 1861.72 655.073 1861.09 656.52 1859.82 657.995 1858.74z"></path>
  <path fill="#AF3E44" d="M 647.73 1889.05 C 654.503 1886.18 662.873 1877.55 668.722 1879.85 L 669.183 1881.24 C 668.973 1886.25 668.88 1891.93 668.408 1896.86 C 660.416 1892.88 656.224 1891.5 647.73 1889.05 z"></path>
  <path fill="#704040" d="M 613.054 1801.83 C 624.554 1820.35 629.033 1833.34 646.938 1848.57 C 650.081 1851.25 654.707 1856.42 657.995 1858.74 C 656.52 1859.82 655.073 1861.09 653.433 1861.72 C 627.265 1838.48 623.611 1834 609.207 1803.21 L 613.054 1801.83 z"></path>
  <path fill="#613536" d="M669.183 1881.24C700.775 1891.49 737.357 1887.97 770.342 1890.5 780.352 1891.27 791.086 1888.48 801.044 1887.85 800.911 1905.81 801.079 1923.77 801.549 1941.73 786.711 1937.56 771.117 1931.71 756.333 1928.1 725.169 1920.49 697.976 1909.44 668.408 1896.86 668.88 1891.93 668.973 1886.25 669.183 1881.24zM709.212 1785.78C729.361 1786.85 735.952 1784.49 753.855 1783.92 757.79 1789.47 761.557 1794.73 765.178 1800.5 754.155 1801.55 743.075 1800.81 735.716 1808.55 730.977 1804.81 729.028 1805.19 723.535 1804.06 718.168 1802.96 712.273 1790.97 709.212 1785.78zM1410.9 1662.74C1413.76 1664.17 1426.34 1670.27 1428.25 1672.22 1452.38 1684.79 1456.48 1691.73 1475.69 1711.57 1478.93 1714.61 1488.73 1723.37 1490.53 1726.51 1499.4 1741.95 1501.91 1757.85 1510.56 1774.31 1522.99 1795.85 1522.9 1808.49 1530.7 1830.23 1507.44 1846.17 1492.73 1853.08 1467.79 1865.82 1457.98 1870.66 1443.86 1878.95 1434.65 1882.84 1427.15 1886.27 1420.66 1888.57 1413.4 1891.7 1398.59 1897.99 1382.72 1905.08 1367.75 1910.7L1366.61 1909.64C1365.58 1903.28 1367.03 1889.05 1367.64 1881.97L1368.1 1881.29C1368.8 1844.79 1368.76 1818.72 1363.42 1782.38 1357.86 1754.62 1360.97 1711.44 1349.43 1686.94L1347.39 1681.37C1351.7 1680.49 1403.93 1697.84 1411.52 1700.49 1412.58 1685.72 1412.45 1677.46 1410.9 1662.74z"></path>
  <path fill="#AF3E44" d="M 1349.43 1686.94 L 1347.39 1681.37 C 1351.7 1680.49 1403.93 1697.84 1411.52 1700.49 L 1411.45 1706.16 C 1412.31 1710.12 1413.88 1718.67 1415.71 1721.8 C 1415.57 1718.9 1415.48 1719.08 1416.62 1716.44 C 1420.29 1714.87 1424.2 1716.34 1428.76 1717.07 C 1429.78 1737.76 1425.28 1752.06 1425.27 1770.32 C 1427.46 1772.24 1426.14 1771.53 1429.97 1771.4 C 1424.4 1775.88 1420.63 1776.36 1419.1 1782.18 L 1417.96 1782.07 C 1405.32 1779.93 1377.58 1781.93 1363.42 1782.38 C 1357.86 1754.62 1360.97 1711.44 1349.43 1686.94 z"></path>
  <path fill="#893D40" d="M 1415.71 1721.8 C 1415.57 1718.9 1415.48 1719.08 1416.62 1716.44 C 1420.29 1714.87 1424.2 1716.34 1428.76 1717.07 C 1429.78 1737.76 1425.28 1752.06 1425.27 1770.32 C 1427.46 1772.24 1426.14 1771.53 1429.97 1771.4 C 1424.4 1775.88 1420.63 1776.36 1419.1 1782.18 L 1417.96 1782.07 C 1418.97 1779.65 1414.59 1771.99 1413.61 1767.51 C 1411.83 1759.34 1417.26 1726.37 1415.71 1721.8 z"></path>
  <path fill="#704040" d="M 1410.9 1662.74 C 1413.76 1664.17 1426.34 1670.27 1428.25 1672.22 C 1452.38 1684.79 1456.48 1691.73 1475.69 1711.57 C 1478.93 1714.61 1488.73 1723.37 1490.53 1726.51 C 1499.4 1741.95 1501.91 1757.85 1510.56 1774.31 C 1496.77 1768.79 1487.96 1750.86 1478.34 1747.53 C 1467.32 1744.37 1458.74 1755.32 1451.13 1755.75 C 1449.28 1756.16 1447.55 1756.5 1445.66 1756.47 C 1440.52 1761.31 1435.14 1766.84 1429.97 1771.4 C 1426.14 1771.53 1427.46 1772.24 1425.27 1770.32 C 1425.28 1752.06 1429.78 1737.76 1428.76 1717.07 C 1424.2 1716.34 1420.29 1714.87 1416.62 1716.44 C 1415.48 1719.08 1415.57 1718.9 1415.71 1721.8 C 1413.88 1718.67 1412.31 1710.12 1411.45 1706.16 L 1411.52 1700.49 C 1412.58 1685.72 1412.45 1677.46 1410.9 1662.74 z"></path>
  <path fill="#AF3E44" d="M 1428.76 1717.07 L 1430.79 1715.18 C 1445.87 1723.96 1457.25 1734.41 1474.14 1743.8 C 1465.01 1747.09 1458.7 1749.21 1451.13 1755.75 C 1449.28 1756.16 1447.55 1756.5 1445.66 1756.47 C 1440.52 1761.31 1435.14 1766.84 1429.97 1771.4 C 1426.14 1771.53 1427.46 1772.24 1425.27 1770.32 C 1425.28 1752.06 1429.78 1737.76 1428.76 1717.07 z"></path>
  <path fill="#613536" d="M 1410.9 1662.74 C 1413.76 1664.17 1426.34 1670.27 1428.25 1672.22 C 1427.32 1673.97 1426.39 1675.49 1427.85 1678.13 C 1431.46 1684.69 1430.7 1707.59 1428.07 1713.84 L 1430.79 1715.18 L 1428.76 1717.07 C 1424.2 1716.34 1420.29 1714.87 1416.62 1716.44 C 1415.48 1719.08 1415.57 1718.9 1415.71 1721.8 C 1413.88 1718.67 1412.31 1710.12 1411.45 1706.16 L 1411.52 1700.49 C 1412.58 1685.72 1412.45 1677.46 1410.9 1662.74 z"></path>
  <path fill="#954445" d="M 1411.45 1706.16 C 1417.39 1710.98 1420.76 1711.57 1428.07 1713.84 L 1430.79 1715.18 L 1428.76 1717.07 C 1424.2 1716.34 1420.29 1714.87 1416.62 1716.44 C 1415.48 1719.08 1415.57 1718.9 1415.71 1721.8 C 1413.88 1718.67 1412.31 1710.12 1411.45 1706.16 z"></path>
  <path fill="#3F3434" d="M1475.69 1711.57C1478.93 1714.61 1488.73 1723.37 1490.53 1726.51 1499.4 1741.95 1501.91 1757.85 1510.56 1774.31 1496.77 1768.79 1487.96 1750.86 1478.34 1747.53 1477.43 1746.54 1476.68 1745.55 1475.84 1744.5 1477.69 1741.5 1482.33 1739.67 1485.98 1737.47 1482.17 1730.03 1475.87 1719.71 1475.69 1711.57zM1418.09 1808C1430.92 1825.61 1447.25 1832.35 1460.61 1848.79 1463.11 1851.87 1465.34 1861.28 1467.79 1865.82 1457.98 1870.66 1443.86 1878.95 1434.65 1882.84 1432.3 1873.84 1431.25 1860.47 1429.04 1850.72 1425.74 1836.23 1421.62 1822.41 1418.09 1808z"></path>
  <path fill="#AF3E44" d="M 1368.1 1881.29 C 1381.8 1877.18 1376.21 1882.77 1387.43 1886.82 C 1394.31 1889.31 1406.91 1887.09 1413.4 1891.7 C 1398.59 1897.99 1382.72 1905.08 1367.75 1910.7 L 1366.61 1909.64 C 1365.58 1903.28 1367.03 1889.05 1367.64 1881.97 L 1368.1 1881.29 z"></path>
  <path fill="#3F3434" d="M 1421.19 1779.26 C 1423.86 1779.92 1423.7 1779.8 1425.63 1781.74 C 1427.37 1786.02 1426.88 1788.06 1426.7 1792.83 C 1421.95 1789.13 1420.53 1785.13 1421.19 1779.26 z"></path>
  <path fill="#704040" d="M 1271.08 1612.48 C 1285.88 1619.42 1301.38 1624.43 1316.26 1631.66 C 1334.78 1639.39 1362.03 1641.9 1381.74 1648.06 C 1391.97 1651.26 1401.64 1657.32 1410.9 1662.74 C 1412.45 1677.46 1412.58 1685.72 1411.52 1700.49 C 1403.93 1697.84 1351.7 1680.49 1347.39 1681.37 L 1349.43 1686.94 L 1347.65 1686.41 C 1343.77 1678.87 1341.5 1680.38 1333.23 1677.74 L 1333.29 1676.61 C 1328.96 1674.37 1313.36 1669.57 1307.88 1667.71 C 1296.94 1664 1287.29 1660.29 1276.54 1656.02 C 1274.75 1648.76 1271.39 1620.31 1271.08 1612.48 z"></path>
  <path fill="#3F3434" d="M 1271.08 1612.48 C 1285.88 1619.42 1301.38 1624.43 1316.26 1631.66 C 1317.54 1638.37 1331.97 1653.45 1336.35 1660.63 C 1340.62 1667.62 1343.7 1673.34 1347.48 1680.66 C 1343.38 1679.43 1337.34 1677.42 1333.29 1676.61 C 1328.96 1674.37 1313.36 1669.57 1307.88 1667.71 C 1296.94 1664 1287.29 1660.29 1276.54 1656.02 C 1274.75 1648.76 1271.39 1620.31 1271.08 1612.48 z"></path>
  <path fill="#9A7C42" d="M 673.286 1241.28 C 682.472 1245.62 685.135 1245.39 695.205 1245.09 C 696.043 1247.3 696.925 1254.76 696.407 1256.85 C 687.211 1262.36 686.706 1257.97 672.879 1257.93 C 669.467 1254.92 666.47 1251.84 662.408 1249.9 L 663.416 1249.53 C 669.464 1247.22 670.732 1247.05 673.286 1241.28 z"></path>
</svg>
